<?xml version="1.0" encoding="UTF-8" standalone="no"?>
<!DOCTYPE svg PUBLIC "-//W3C//DTD SVG 1.1//EN"
 "http://www.w3.org/Graphics/SVG/1.1/DTD/svg11.dtd">
<!-- Generated by graphviz version 2.40.1 (20161225.0304)
 -->
<!-- Title: %3 Pages: 1 -->
<svg width="2123pt" height="773pt"
 viewBox="0.00 0.00 2123.00 772.50" xmlns="http://www.w3.org/2000/svg" xmlns:xlink="http://www.w3.org/1999/xlink">
<g id="graph0" class="graph" transform="scale(1 1) rotate(0) translate(4 768.5)">
<title>%3</title>
<polygon fill="#000000" stroke="transparent" points="-4,4 -4,-768.5 2119,-768.5 2119,4 -4,4"/>
<g id="clust1" class="cluster">
<title>cluster</title>
<polygon fill="#2c3e50" stroke="#000000" points="8,-8 8,-756.5 112,-756.5 112,-8 8,-8"/>
<text text-anchor="middle" x="60" y="-741.3" font-family="Sans-Serif" font-size="14.00" fill="#ecf0f1">Semester Key</text>
</g>
<!-- 0 -->
<g id="node1" class="node">
<title>0</title>
<polygon fill="#bdc3c7" stroke="#bdc3c7" points="86,-725.5 32,-725.5 32,-689.5 86,-689.5 86,-725.5"/>
<text text-anchor="middle" x="59" y="-703.8" font-family="Sans-Serif" font-size="14.00" fill="#000000">0</text>
</g>
<!-- 1 -->
<g id="node2" class="node">
<title>1</title>
<polygon fill="#c0392b" stroke="#c0392b" points="86,-636.5 32,-636.5 32,-600.5 86,-600.5 86,-636.5"/>
<text text-anchor="middle" x="59" y="-614.8" font-family="Sans-Serif" font-size="14.00" fill="#000000">1</text>
</g>
<!-- 2 -->
<g id="node3" class="node">
<title>2</title>
<polygon fill="#d35400" stroke="#d35400" points="86,-547.5 32,-547.5 32,-511.5 86,-511.5 86,-547.5"/>
<text text-anchor="middle" x="59" y="-525.8" font-family="Sans-Serif" font-size="14.00" fill="#000000">2</text>
</g>
<!-- 3 -->
<g id="node4" class="node">
<title>3</title>
<polygon fill="#f39c12" stroke="#f39c12" points="86,-458.5 32,-458.5 32,-422.5 86,-422.5 86,-458.5"/>
<text text-anchor="middle" x="59" y="-436.8" font-family="Sans-Serif" font-size="14.00" fill="#000000">3</text>
</g>
<!-- 4 -->
<g id="node5" class="node">
<title>4</title>
<polygon fill="#16a085" stroke="#16a085" points="86,-369.5 32,-369.5 32,-333.5 86,-333.5 86,-369.5"/>
<text text-anchor="middle" x="59" y="-347.8" font-family="Sans-Serif" font-size="14.00" fill="#000000">4</text>
</g>
<!-- 5 -->
<g id="node6" class="node">
<title>5</title>
<polygon fill="#27ae60" stroke="#27ae60" points="86,-280.5 32,-280.5 32,-244.5 86,-244.5 86,-280.5"/>
<text text-anchor="middle" x="59" y="-258.8" font-family="Sans-Serif" font-size="14.00" fill="#000000">5</text>
</g>
<!-- 6 -->
<g id="node7" class="node">
<title>6</title>
<polygon fill="#2980b9" stroke="#2980b9" points="86,-199 32,-199 32,-163 86,-163 86,-199"/>
<text text-anchor="middle" x="59" y="-177.3" font-family="Sans-Serif" font-size="14.00" fill="#000000">6</text>
</g>
<!-- 7 -->
<g id="node8" class="node">
<title>7</title>
<polygon fill="#8e44ad" stroke="#8e44ad" points="86,-125 32,-125 32,-89 86,-89 86,-125"/>
<text text-anchor="middle" x="59" y="-103.3" font-family="Sans-Serif" font-size="14.00" fill="#000000">7</text>
</g>
<!-- 8 -->
<g id="node9" class="node">
<title>8</title>
<polygon fill="#7f8c8d" stroke="#7f8c8d" points="86,-52 32,-52 32,-16 86,-16 86,-52"/>
<text text-anchor="middle" x="59" y="-30.3" font-family="Sans-Serif" font-size="14.00" fill="#000000">8</text>
</g>
<!-- MAT270 -->
<g id="node10" class="node">
<title>MAT270</title>
<polygon fill="#bdc3c7" stroke="#000000" points="1275,-734 1061,-734 1061,-681 1275,-681 1275,-734"/>
<text text-anchor="middle" x="1168" y="-718.8" font-family="Sans-Serif" font-size="14.00" fill="#000000">MAT270</text>
<text text-anchor="middle" x="1168" y="-703.8" font-family="Sans-Serif" font-size="14.00" fill="#000000">Calculus w/ Analytic Geometry I</text>
<text text-anchor="middle" x="1168" y="-688.8" font-family="Sans-Serif" font-size="14.00" fill="#000000">AP</text>
</g>
<!-- MAT271 -->
<g id="node11" class="node">
<title>MAT271</title>
<polygon fill="#bdc3c7" stroke="#000000" points="824,-645 606,-645 606,-592 824,-592 824,-645"/>
<text text-anchor="middle" x="715" y="-629.8" font-family="Sans-Serif" font-size="14.00" fill="#000000">MAT271</text>
<text text-anchor="middle" x="715" y="-614.8" font-family="Sans-Serif" font-size="14.00" fill="#000000">Calculus w/ Analytic Geometry II</text>
<text text-anchor="middle" x="715" y="-599.8" font-family="Sans-Serif" font-size="14.00" fill="#000000">AP</text>
</g>
<!-- MAT270&#45;&gt;MAT271 -->
<g id="edge9" class="edge">
<title>MAT270&#45;&gt;MAT271</title>
<path fill="none" stroke="#ecf0f1" d="M1060.9323,-686.4646C992.8614,-673.0909 904.6328,-655.7568 834.3163,-641.9418"/>
<polygon fill="#ecf0f1" stroke="#ecf0f1" points="834.5634,-638.4235 824.0762,-639.93 833.2138,-645.2922 834.5634,-638.4235"/>
</g>
<!-- MAT243 -->
<g id="node19" class="node">
<title>MAT243</title>
<polygon fill="#d35400" stroke="#000000" points="1436.5,-645 1265.5,-645 1265.5,-592 1436.5,-592 1436.5,-645"/>
<text text-anchor="middle" x="1351" y="-629.8" font-family="Sans-Serif" font-size="14.00" fill="#000000">MAT243</text>
<text text-anchor="middle" x="1351" y="-614.8" font-family="Sans-Serif" font-size="14.00" fill="#000000">Discrete Math Structures</text>
<text text-anchor="middle" x="1351" y="-599.8" font-family="Sans-Serif" font-size="14.00" fill="#000000">A+</text>
</g>
<!-- MAT270&#45;&gt;MAT243 -->
<g id="edge14" class="edge">
<title>MAT270&#45;&gt;MAT243</title>
<path fill="none" stroke="#ecf0f1" d="M1222.906,-680.7971C1243.1738,-670.94 1266.3096,-659.6882 1287.2913,-649.484"/>
<polygon fill="#ecf0f1" stroke="#ecf0f1" points="1288.9862,-652.5518 1296.4483,-645.0306 1285.9246,-646.2568 1288.9862,-652.5518"/>
</g>
<!-- MAT300 -->
<g id="node27" class="node">
<title>MAT300</title>
<polygon fill="#16a085" stroke="#000000" points="1301.5,-556 1134.5,-556 1134.5,-503 1301.5,-503 1301.5,-556"/>
<text text-anchor="middle" x="1218" y="-540.8" font-family="Sans-Serif" font-size="14.00" fill="#000000">MAT300</text>
<text text-anchor="middle" x="1218" y="-525.8" font-family="Sans-Serif" font-size="14.00" fill="#000000">Mathematical Structures</text>
<text text-anchor="middle" x="1218" y="-510.8" font-family="Sans-Serif" font-size="14.00" fill="#000000">B</text>
</g>
<!-- MAT270&#45;&gt;MAT300 -->
<g id="edge25" class="edge">
<title>MAT270&#45;&gt;MAT300</title>
<path fill="none" stroke="#ecf0f1" d="M1183.4008,-680.8589C1189.0704,-670.0358 1195.0621,-657.22 1199,-645 1207.2699,-619.337 1212.0712,-589.2503 1214.7779,-566.2188"/>
<polygon fill="#ecf0f1" stroke="#ecf0f1" points="1218.2684,-566.4963 1215.8791,-556.1744 1211.3101,-565.7334 1218.2684,-566.4963"/>
</g>
<!-- CHM113 -->
<g id="node33" class="node">
<title>CHM113</title>
<polygon fill="#27ae60" stroke="#000000" points="1189.5,-637.5 1048.5,-637.5 1048.5,-599.5 1189.5,-599.5 1189.5,-637.5"/>
<text text-anchor="middle" x="1119" y="-622.3" font-family="Sans-Serif" font-size="14.00" fill="#000000">CHM113</text>
<text text-anchor="middle" x="1119" y="-607.3" font-family="Sans-Serif" font-size="14.00" fill="#000000">General Chemistry I</text>
</g>
<!-- MAT270&#45;&gt;CHM113 -->
<g id="edge33" class="edge">
<title>MAT270&#45;&gt;CHM113</title>
<path fill="none" stroke="#ecf0f1" d="M1153.2984,-680.7971C1147.308,-669.9166 1140.382,-657.3366 1134.3288,-646.3421"/>
<polygon fill="#ecf0f1" stroke="#ecf0f1" points="1137.3782,-644.6238 1129.4892,-637.5518 1131.2462,-647.9999 1137.3782,-644.6238"/>
</g>
<!-- MAT267 -->
<g id="node12" class="node">
<title>MAT267</title>
<polygon fill="#bdc3c7" stroke="#000000" points="709.5,-556 536.5,-556 536.5,-503 709.5,-503 709.5,-556"/>
<text text-anchor="middle" x="623" y="-540.8" font-family="Sans-Serif" font-size="14.00" fill="#000000">MAT267</text>
<text text-anchor="middle" x="623" y="-525.8" font-family="Sans-Serif" font-size="14.00" fill="#000000">Calculus for Engineers III</text>
<text text-anchor="middle" x="623" y="-510.8" font-family="Sans-Serif" font-size="14.00" fill="#000000">TC</text>
</g>
<!-- MAT271&#45;&gt;MAT267 -->
<g id="edge10" class="edge">
<title>MAT271&#45;&gt;MAT267</title>
<path fill="none" stroke="#ecf0f1" d="M687.397,-591.7971C678.118,-582.8207 667.6433,-572.6876 657.8797,-563.2423"/>
<polygon fill="#ecf0f1" stroke="#ecf0f1" points="660.2044,-560.6215 650.5836,-556.1841 655.3373,-565.6526 660.2044,-560.6215"/>
</g>
<!-- IEE380 -->
<g id="node16" class="node">
<title>IEE380</title>
<polygon fill="#c0392b" stroke="#000000" points="1116,-556 904,-556 904,-503 1116,-503 1116,-556"/>
<text text-anchor="middle" x="1010" y="-540.8" font-family="Sans-Serif" font-size="14.00" fill="#000000">IEE380</text>
<text text-anchor="middle" x="1010" y="-525.8" font-family="Sans-Serif" font-size="14.00" fill="#000000">Prob &amp; Stats Engr Prob Solving</text>
<text text-anchor="middle" x="1010" y="-510.8" font-family="Sans-Serif" font-size="14.00" fill="#000000">A</text>
</g>
<!-- MAT271&#45;&gt;IEE380 -->
<g id="edge12" class="edge">
<title>MAT271&#45;&gt;IEE380</title>
<path fill="none" stroke="#ecf0f1" d="M803.1101,-591.9176C837.4843,-581.5471 877.0245,-569.618 912.2698,-558.9847"/>
<polygon fill="#ecf0f1" stroke="#ecf0f1" points="913.5263,-562.2615 922.0891,-556.0223 911.5044,-555.5599 913.5263,-562.2615"/>
</g>
<!-- PHY121 -->
<g id="node20" class="node">
<title>PHY121</title>
<polygon fill="#d35400" stroke="#000000" points="518.5,-556 339.5,-556 339.5,-503 518.5,-503 518.5,-556"/>
<text text-anchor="middle" x="429" y="-540.8" font-family="Sans-Serif" font-size="14.00" fill="#000000">PHY121</text>
<text text-anchor="middle" x="429" y="-525.8" font-family="Sans-Serif" font-size="14.00" fill="#000000">Univ Physics I: Mechanics</text>
<text text-anchor="middle" x="429" y="-510.8" font-family="Sans-Serif" font-size="14.00" fill="#000000">A+</text>
</g>
<!-- MAT271&#45;&gt;PHY121 -->
<g id="edge15" class="edge">
<title>MAT271&#45;&gt;PHY121</title>
<path fill="none" stroke="#ecf0f1" d="M629.578,-591.9176C596.4698,-581.6147 558.4184,-569.7736 524.4176,-559.1929"/>
<polygon fill="#ecf0f1" stroke="#ecf0f1" points="525.0641,-555.7286 514.4757,-556.0991 522.9841,-562.4124 525.0641,-555.7286"/>
</g>
<!-- MAT343 -->
<g id="node24" class="node">
<title>MAT343</title>
<polygon fill="#f39c12" stroke="#000000" points="886,-556 728,-556 728,-503 886,-503 886,-556"/>
<text text-anchor="middle" x="807" y="-540.8" font-family="Sans-Serif" font-size="14.00" fill="#000000">MAT343</text>
<text text-anchor="middle" x="807" y="-525.8" font-family="Sans-Serif" font-size="14.00" fill="#000000">Applied Linear Algebra</text>
<text text-anchor="middle" x="807" y="-510.8" font-family="Sans-Serif" font-size="14.00" fill="#000000">A+</text>
</g>
<!-- MAT271&#45;&gt;MAT343 -->
<g id="edge21" class="edge">
<title>MAT271&#45;&gt;MAT343</title>
<path fill="none" stroke="#ecf0f1" d="M742.603,-591.7971C751.882,-582.8207 762.3567,-572.6876 772.1203,-563.2423"/>
<polygon fill="#ecf0f1" stroke="#ecf0f1" points="774.6627,-565.6526 779.4164,-556.1841 769.7956,-560.6215 774.6627,-565.6526"/>
</g>
<!-- MAT275 -->
<g id="node30" class="node">
<title>MAT275</title>
<polygon fill="#27ae60" stroke="#000000" points="321.5,-548.5 120.5,-548.5 120.5,-510.5 321.5,-510.5 321.5,-548.5"/>
<text text-anchor="middle" x="221" y="-533.3" font-family="Sans-Serif" font-size="14.00" fill="#000000">MAT275</text>
<text text-anchor="middle" x="221" y="-518.3" font-family="Sans-Serif" font-size="14.00" fill="#000000">Modern Differential Equations</text>
</g>
<!-- MAT271&#45;&gt;MAT275 -->
<g id="edge29" class="edge">
<title>MAT271&#45;&gt;MAT275</title>
<path fill="none" stroke="#ecf0f1" d="M605.8947,-603.0932C528.5889,-591.6153 422.5852,-574.7403 330,-556 322.1293,-554.4069 313.9662,-552.6395 305.809,-550.7952"/>
<polygon fill="#ecf0f1" stroke="#ecf0f1" points="306.412,-547.3426 295.8821,-548.5141 304.8443,-554.1648 306.412,-547.3426"/>
</g>
<!-- PHY131 -->
<g id="node28" class="node">
<title>PHY131</title>
<polygon fill="#16a085" stroke="#000000" points="546.5,-467 311.5,-467 311.5,-414 546.5,-414 546.5,-467"/>
<text text-anchor="middle" x="429" y="-451.8" font-family="Sans-Serif" font-size="14.00" fill="#000000">PHY131</text>
<text text-anchor="middle" x="429" y="-436.8" font-family="Sans-Serif" font-size="14.00" fill="#000000">University Physics II: Elctrc/Magnet</text>
<text text-anchor="middle" x="429" y="-421.8" font-family="Sans-Serif" font-size="14.00" fill="#000000">A</text>
</g>
<!-- MAT267&#45;&gt;PHY131 -->
<g id="edge27" class="edge">
<title>MAT267&#45;&gt;PHY131</title>
<path fill="none" stroke="#ecf0f1" d="M565.0564,-502.9176C543.3695,-492.9685 518.5558,-481.5849 496.1089,-471.2871"/>
<polygon fill="#ecf0f1" stroke="#ecf0f1" points="497.5287,-468.0877 486.98,-467.0991 494.6098,-474.4501 497.5287,-468.0877"/>
</g>
<!-- MAT371 -->
<g id="node31" class="node">
<title>MAT371</title>
<polygon fill="#27ae60" stroke="#000000" points="1057,-459.5 913,-459.5 913,-421.5 1057,-421.5 1057,-459.5"/>
<text text-anchor="middle" x="985" y="-444.3" font-family="Sans-Serif" font-size="14.00" fill="#000000">MAT371</text>
<text text-anchor="middle" x="985" y="-429.3" font-family="Sans-Serif" font-size="14.00" fill="#000000">Advanced Calculus I</text>
</g>
<!-- MAT267&#45;&gt;MAT371 -->
<g id="edge30" class="edge">
<title>MAT267&#45;&gt;MAT371</title>
<path fill="none" stroke="#ecf0f1" d="M709.5282,-505.2842C712.721,-504.4958 715.8861,-503.7316 719,-503 800.5441,-483.8413 822.927,-488.0634 904,-467 909.2807,-465.628 914.7207,-464.1015 920.1646,-462.4933"/>
<polygon fill="#ecf0f1" stroke="#ecf0f1" points="921.3828,-465.7813 929.9342,-459.5263 919.3486,-459.0834 921.3828,-465.7813"/>
</g>
<!-- STP421 -->
<g id="node35" class="node">
<title>STP421</title>
<polygon fill="#2980b9" stroke="#000000" points="647,-459.5 565,-459.5 565,-421.5 647,-421.5 647,-459.5"/>
<text text-anchor="middle" x="606" y="-444.3" font-family="Sans-Serif" font-size="14.00" fill="#000000">STP421</text>
<text text-anchor="middle" x="606" y="-429.3" font-family="Sans-Serif" font-size="14.00" fill="#000000">Probability</text>
</g>
<!-- MAT267&#45;&gt;STP421 -->
<g id="edge35" class="edge">
<title>MAT267&#45;&gt;STP421</title>
<path fill="none" stroke="#ecf0f1" d="M617.8994,-502.7971C615.9043,-492.3518 613.6099,-480.3403 611.5716,-469.6689"/>
<polygon fill="#ecf0f1" stroke="#ecf0f1" points="614.9532,-468.7175 609.6391,-459.5518 608.0775,-470.0309 614.9532,-468.7175"/>
</g>
<!-- CSE110 -->
<g id="node13" class="node">
<title>CSE110</title>
<polygon fill="#bdc3c7" stroke="#000000" points="1811.5,-645 1630.5,-645 1630.5,-592 1811.5,-592 1811.5,-645"/>
<text text-anchor="middle" x="1721" y="-629.8" font-family="Sans-Serif" font-size="14.00" fill="#000000">CSE110</text>
<text text-anchor="middle" x="1721" y="-614.8" font-family="Sans-Serif" font-size="14.00" fill="#000000">Principles of Programming</text>
<text text-anchor="middle" x="1721" y="-599.8" font-family="Sans-Serif" font-size="14.00" fill="#000000">AP</text>
</g>
<!-- CSE205 -->
<g id="node14" class="node">
<title>CSE205</title>
<polygon fill="#c0392b" stroke="#000000" points="1900,-556 1680,-556 1680,-503 1900,-503 1900,-556"/>
<text text-anchor="middle" x="1790" y="-540.8" font-family="Sans-Serif" font-size="14.00" fill="#000000">CSE205</text>
<text text-anchor="middle" x="1790" y="-525.8" font-family="Sans-Serif" font-size="14.00" fill="#000000">Object&#45;Oriented Program &amp; Data</text>
<text text-anchor="middle" x="1790" y="-510.8" font-family="Sans-Serif" font-size="14.00" fill="#000000">A+</text>
</g>
<!-- CSE110&#45;&gt;CSE205 -->
<g id="edge11" class="edge">
<title>CSE110&#45;&gt;CSE205</title>
<path fill="none" stroke="#ecf0f1" d="M1741.7023,-591.7971C1748.3886,-583.1727 1755.9027,-573.4806 1762.9764,-564.3566"/>
<polygon fill="#ecf0f1" stroke="#ecf0f1" points="1765.9513,-566.2317 1769.3123,-556.1841 1760.4191,-561.9427 1765.9513,-566.2317"/>
</g>
<!-- CSE230 -->
<g id="node22" class="node">
<title>CSE230</title>
<polygon fill="#f39c12" stroke="#000000" points="1723,-378 1495,-378 1495,-325 1723,-325 1723,-378"/>
<text text-anchor="middle" x="1609" y="-362.8" font-family="Sans-Serif" font-size="14.00" fill="#000000">CSE230</text>
<text text-anchor="middle" x="1609" y="-347.8" font-family="Sans-Serif" font-size="14.00" fill="#000000">Computer Org/Assemb Lang Prog</text>
<text text-anchor="middle" x="1609" y="-332.8" font-family="Sans-Serif" font-size="14.00" fill="#000000">A+</text>
</g>
<!-- CSE110&#45;&gt;CSE230 -->
<g id="edge17" class="edge">
<title>CSE110&#45;&gt;CSE230</title>
<path fill="none" stroke="#ecf0f1" d="M1695.689,-591.8982C1686.8131,-581.3851 1677.4578,-568.7728 1671,-556 1641.5223,-497.6964 1653.1824,-476.1363 1633,-414 1630.1825,-405.3255 1626.8373,-396.0967 1623.5527,-387.4684"/>
<polygon fill="#ecf0f1" stroke="#ecf0f1" points="1626.7775,-386.1038 1619.9013,-378.0435 1620.2503,-388.6326 1626.7775,-386.1038"/>
</g>
<!-- CSE240 -->
<g id="node18" class="node">
<title>CSE240</title>
<polygon fill="#d35400" stroke="#000000" points="1908.5,-467 1687.5,-467 1687.5,-414 1908.5,-414 1908.5,-467"/>
<text text-anchor="middle" x="1798" y="-451.8" font-family="Sans-Serif" font-size="14.00" fill="#000000">CSE240</text>
<text text-anchor="middle" x="1798" y="-436.8" font-family="Sans-Serif" font-size="14.00" fill="#000000">Intro to Programming Languages</text>
<text text-anchor="middle" x="1798" y="-421.8" font-family="Sans-Serif" font-size="14.00" fill="#000000">A+</text>
</g>
<!-- CSE205&#45;&gt;CSE240 -->
<g id="edge13" class="edge">
<title>CSE205&#45;&gt;CSE240</title>
<path fill="none" stroke="#ecf0f1" d="M1792.4003,-502.7971C1793.1201,-494.7887 1793.9227,-485.8597 1794.6904,-477.3198"/>
<polygon fill="#ecf0f1" stroke="#ecf0f1" points="1798.192,-477.4573 1795.6014,-467.1841 1791.2201,-476.8306 1798.192,-477.4573"/>
</g>
<!-- CSE301 -->
<g id="node40" class="node">
<title>CSE301</title>
<polygon fill="#2980b9" stroke="#000000" points="2066,-459.5 1940,-459.5 1940,-421.5 2066,-421.5 2066,-459.5"/>
<text text-anchor="middle" x="2003" y="-444.3" font-family="Sans-Serif" font-size="14.00" fill="#000000">CSE301</text>
<text text-anchor="middle" x="2003" y="-429.3" font-family="Sans-Serif" font-size="14.00" fill="#000000">Computing Ethics</text>
</g>
<!-- CSE205&#45;&gt;CSE301 -->
<g id="edge43" class="edge">
<title>CSE205&#45;&gt;CSE301</title>
<path fill="none" stroke="#ecf0f1" d="M1853.6185,-502.9176C1883.5754,-490.4004 1918.9664,-475.6126 1947.7797,-463.5733"/>
<polygon fill="#ecf0f1" stroke="#ecf0f1" points="1949.4041,-466.6878 1957.2816,-459.603 1946.7053,-460.229 1949.4041,-466.6878"/>
</g>
<!-- MAT447 -->
<g id="node42" class="node">
<title>MAT447</title>
<polygon fill="#8e44ad" stroke="#000000" points="1343,-459.5 1235,-459.5 1235,-421.5 1343,-421.5 1343,-459.5"/>
<text text-anchor="middle" x="1289" y="-444.3" font-family="Sans-Serif" font-size="14.00" fill="#000000">MAT447</text>
<text text-anchor="middle" x="1289" y="-429.3" font-family="Sans-Serif" font-size="14.00" fill="#000000">Cryptography I</text>
</g>
<!-- CSE205&#45;&gt;MAT447 -->
<g id="edge48" class="edge">
<title>CSE205&#45;&gt;MAT447</title>
<path fill="none" stroke="#ecf0f1" d="M1679.7435,-511.8308C1606.0911,-499.7929 1507.1117,-483.164 1420,-467 1398.1384,-462.9435 1374.2885,-458.2108 1353.0018,-453.8766"/>
<polygon fill="#ecf0f1" stroke="#ecf0f1" points="1353.5977,-450.4261 1343.0992,-451.8516 1352.1952,-457.2842 1353.5977,-450.4261"/>
</g>
<!-- FSE100 -->
<g id="node15" class="node">
<title>FSE100</title>
<polygon fill="#c0392b" stroke="#000000" points="2102,-556 1918,-556 1918,-503 2102,-503 2102,-556"/>
<text text-anchor="middle" x="2010" y="-540.8" font-family="Sans-Serif" font-size="14.00" fill="#000000">FSE100</text>
<text text-anchor="middle" x="2010" y="-525.8" font-family="Sans-Serif" font-size="14.00" fill="#000000">Introduction to Engineering</text>
<text text-anchor="middle" x="2010" y="-510.8" font-family="Sans-Serif" font-size="14.00" fill="#000000">A</text>
</g>
<!-- FSE100&#45;&gt;CSE301 -->
<g id="edge42" class="edge">
<title>FSE100&#45;&gt;CSE301</title>
<path fill="none" stroke="#ecf0f1" d="M2007.8998,-502.7971C2007.0782,-492.3518 2006.1335,-480.3403 2005.2942,-469.6689"/>
<polygon fill="#ecf0f1" stroke="#ecf0f1" points="2008.7719,-469.2465 2004.4985,-459.5518 2001.7934,-469.7955 2008.7719,-469.2465"/>
</g>
<!-- CSE120 -->
<g id="node17" class="node">
<title>CSE120</title>
<polygon fill="#d35400" stroke="#000000" points="1623.5,-467 1428.5,-467 1428.5,-414 1623.5,-414 1623.5,-467"/>
<text text-anchor="middle" x="1526" y="-451.8" font-family="Sans-Serif" font-size="14.00" fill="#000000">CSE120</text>
<text text-anchor="middle" x="1526" y="-436.8" font-family="Sans-Serif" font-size="14.00" fill="#000000">Digital Design Fundamentals</text>
<text text-anchor="middle" x="1526" y="-421.8" font-family="Sans-Serif" font-size="14.00" fill="#000000">A+</text>
</g>
<!-- CSE120&#45;&gt;CSE230 -->
<g id="edge18" class="edge">
<title>CSE120&#45;&gt;CSE230</title>
<path fill="none" stroke="#ecf0f1" d="M1550.9027,-413.7971C1559.1919,-404.9087 1568.5387,-394.8862 1577.2732,-385.5203"/>
<polygon fill="#ecf0f1" stroke="#ecf0f1" points="1579.8542,-387.8845 1584.1148,-378.1841 1574.7349,-383.1103 1579.8542,-387.8845"/>
</g>
<!-- CSE310 -->
<g id="node23" class="node">
<title>CSE310</title>
<polygon fill="#f39c12" stroke="#000000" points="1476.5,-378 1265.5,-378 1265.5,-325 1476.5,-325 1476.5,-378"/>
<text text-anchor="middle" x="1371" y="-362.8" font-family="Sans-Serif" font-size="14.00" fill="#000000">CSE310</text>
<text text-anchor="middle" x="1371" y="-347.8" font-family="Sans-Serif" font-size="14.00" fill="#000000">Data Structures and Algorithms</text>
<text text-anchor="middle" x="1371" y="-332.8" font-family="Sans-Serif" font-size="14.00" fill="#000000">A+</text>
</g>
<!-- CSE240&#45;&gt;CSE310 -->
<g id="edge19" class="edge">
<title>CSE240&#45;&gt;CSE310</title>
<path fill="none" stroke="#ecf0f1" d="M1687.3779,-419.1447C1630.2192,-407.9164 1559.1096,-393.649 1486.3723,-378.0581"/>
<polygon fill="#ecf0f1" stroke="#ecf0f1" points="1487.0786,-374.6301 1476.5663,-375.9503 1485.6074,-381.4738 1487.0786,-374.6301"/>
</g>
<!-- CSE365 -->
<g id="node26" class="node">
<title>CSE365</title>
<polygon fill="#16a085" stroke="#000000" points="1898.5,-378 1741.5,-378 1741.5,-325 1898.5,-325 1898.5,-378"/>
<text text-anchor="middle" x="1820" y="-362.8" font-family="Sans-Serif" font-size="14.00" fill="#000000">CSE365</text>
<text text-anchor="middle" x="1820" y="-347.8" font-family="Sans-Serif" font-size="14.00" fill="#000000">Information Assurance</text>
<text text-anchor="middle" x="1820" y="-332.8" font-family="Sans-Serif" font-size="14.00" fill="#000000">A+</text>
</g>
<!-- CSE240&#45;&gt;CSE365 -->
<g id="edge24" class="edge">
<title>CSE240&#45;&gt;CSE365</title>
<path fill="none" stroke="#ecf0f1" d="M1804.6007,-413.7971C1806.6021,-405.7007 1808.836,-396.6633 1810.968,-388.0384"/>
<polygon fill="#ecf0f1" stroke="#ecf0f1" points="1814.4019,-388.7318 1813.4039,-378.1841 1807.6064,-387.052 1814.4019,-388.7318"/>
</g>
<!-- CSE360 -->
<g id="node32" class="node">
<title>CSE360</title>
<polygon fill="#27ae60" stroke="#000000" points="2115,-370.5 1917,-370.5 1917,-332.5 2115,-332.5 2115,-370.5"/>
<text text-anchor="middle" x="2016" y="-355.3" font-family="Sans-Serif" font-size="14.00" fill="#000000">CSE360</text>
<text text-anchor="middle" x="2016" y="-340.3" font-family="Sans-Serif" font-size="14.00" fill="#000000">Intro to Software Engineering</text>
</g>
<!-- CSE240&#45;&gt;CSE360 -->
<g id="edge32" class="edge">
<title>CSE240&#45;&gt;CSE360</title>
<path fill="none" stroke="#ecf0f1" d="M1863.1119,-413.9176C1893.9053,-401.346 1930.3089,-386.484 1959.8677,-374.4164"/>
<polygon fill="#ecf0f1" stroke="#ecf0f1" points="1961.2732,-377.6231 1969.2084,-370.603 1958.6273,-371.1424 1961.2732,-377.6231"/>
</g>
<!-- MAT243&#45;&gt;CSE310 -->
<g id="edge20" class="edge">
<title>MAT243&#45;&gt;CSE310</title>
<path fill="none" stroke="#ecf0f1" d="M1352.9908,-591.9229C1356.5755,-544.0667 1364.123,-443.3082 1368.217,-388.6529"/>
<polygon fill="#ecf0f1" stroke="#ecf0f1" points="1371.7307,-388.5994 1368.9876,-378.3659 1364.7503,-388.0765 1371.7307,-388.5994"/>
</g>
<!-- PHY122 -->
<g id="node21" class="node">
<title>PHY122</title>
<polygon fill="#d35400" stroke="#000000" points="293,-467 161,-467 161,-414 293,-414 293,-467"/>
<text text-anchor="middle" x="227" y="-451.8" font-family="Sans-Serif" font-size="14.00" fill="#000000">PHY122</text>
<text text-anchor="middle" x="227" y="-436.8" font-family="Sans-Serif" font-size="14.00" fill="#000000">Univ Physics Lab I</text>
<text text-anchor="middle" x="227" y="-421.8" font-family="Sans-Serif" font-size="14.00" fill="#000000">A&#45;</text>
</g>
<!-- PHY121&#45;&gt;PHY122 -->
<g id="edge16" class="edge">
<title>PHY121&#45;&gt;PHY122</title>
<path fill="none" stroke="#ecf0f1" d="M368.667,-502.9176C345.9854,-492.9243 320.0191,-481.4837 296.5648,-471.1498"/>
<polygon fill="#ecf0f1" stroke="#ecf0f1" points="297.9333,-467.9282 287.371,-467.0991 295.1109,-474.334 297.9333,-467.9282"/>
</g>
<!-- PHY121&#45;&gt;PHY131 -->
<g id="edge26" class="edge">
<title>PHY121&#45;&gt;PHY131</title>
<path fill="none" stroke="#ecf0f1" d="M429,-502.7971C429,-494.7887 429,-485.8597 429,-477.3198"/>
<polygon fill="#ecf0f1" stroke="#ecf0f1" points="432.5001,-477.1841 429,-467.1841 425.5001,-477.1841 432.5001,-477.1841"/>
</g>
<!-- CSE340 -->
<g id="node25" class="node">
<title>CSE340</title>
<polygon fill="#16a085" stroke="#000000" points="1780,-289 1564,-289 1564,-236 1780,-236 1780,-289"/>
<text text-anchor="middle" x="1672" y="-273.8" font-family="Sans-Serif" font-size="14.00" fill="#000000">CSE340</text>
<text text-anchor="middle" x="1672" y="-258.8" font-family="Sans-Serif" font-size="14.00" fill="#000000">Principles of Programming Lang</text>
<text text-anchor="middle" x="1672" y="-243.8" font-family="Sans-Serif" font-size="14.00" fill="#000000">A</text>
</g>
<!-- CSE230&#45;&gt;CSE340 -->
<g id="edge23" class="edge">
<title>CSE230&#45;&gt;CSE340</title>
<path fill="none" stroke="#ecf0f1" d="M1627.9021,-324.7971C1634.007,-316.1727 1640.8677,-306.4806 1647.3262,-297.3566"/>
<polygon fill="#ecf0f1" stroke="#ecf0f1" points="1650.1903,-299.3683 1653.1113,-289.1841 1644.4769,-295.324 1650.1903,-299.3683"/>
</g>
<!-- CSE330 -->
<g id="node39" class="node">
<title>CSE330</title>
<polygon fill="#2980b9" stroke="#000000" points="1546,-281.5 1410,-281.5 1410,-243.5 1546,-243.5 1546,-281.5"/>
<text text-anchor="middle" x="1478" y="-266.3" font-family="Sans-Serif" font-size="14.00" fill="#000000">CSE330</text>
<text text-anchor="middle" x="1478" y="-251.3" font-family="Sans-Serif" font-size="14.00" fill="#000000">Operating Systems</text>
</g>
<!-- CSE230&#45;&gt;CSE330 -->
<g id="edge40" class="edge">
<title>CSE230&#45;&gt;CSE330</title>
<path fill="none" stroke="#ecf0f1" d="M1569.6957,-324.7971C1552.2393,-312.9374 1531.8108,-299.0585 1514.672,-287.4145"/>
<polygon fill="#ecf0f1" stroke="#ecf0f1" points="1516.281,-284.2764 1506.0425,-281.5518 1512.3472,-290.0665 1516.281,-284.2764"/>
</g>
<!-- CSE310&#45;&gt;CSE340 -->
<g id="edge22" class="edge">
<title>CSE310&#45;&gt;CSE340</title>
<path fill="none" stroke="#ecf0f1" d="M1460.9022,-324.9176C1495.9755,-314.5471 1536.3199,-302.618 1572.2821,-291.9847"/>
<polygon fill="#ecf0f1" stroke="#ecf0f1" points="1573.7039,-295.2142 1582.3011,-289.0223 1571.719,-288.5014 1573.7039,-295.2142"/>
</g>
<!-- CSE355 -->
<g id="node34" class="node">
<title>CSE355</title>
<polygon fill="#27ae60" stroke="#000000" points="986,-281.5 780,-281.5 780,-243.5 986,-243.5 986,-281.5"/>
<text text-anchor="middle" x="883" y="-266.3" font-family="Sans-Serif" font-size="14.00" fill="#000000">CSE355</text>
<text text-anchor="middle" x="883" y="-251.3" font-family="Sans-Serif" font-size="14.00" fill="#000000">Intro Theoretical Computer Sci</text>
</g>
<!-- CSE310&#45;&gt;CSE355 -->
<g id="edge34" class="edge">
<title>CSE310&#45;&gt;CSE355</title>
<path fill="none" stroke="#ecf0f1" d="M1265.4832,-326.8019C1262.2899,-326.1773 1259.1232,-325.5749 1256,-325 1141.2695,-303.8814 1110.6894,-310.3406 996,-289 987.5079,-287.4199 978.6913,-285.6258 969.8971,-283.7339"/>
<polygon fill="#ecf0f1" stroke="#ecf0f1" points="970.5137,-280.286 959.9961,-281.5624 969.0141,-287.1235 970.5137,-280.286"/>
</g>
<!-- CSE450 -->
<g id="node37" class="node">
<title>CSE450</title>
<polygon fill="#2980b9" stroke="#000000" points="1211.5,-281.5 1004.5,-281.5 1004.5,-243.5 1211.5,-243.5 1211.5,-281.5"/>
<text text-anchor="middle" x="1108" y="-266.3" font-family="Sans-Serif" font-size="14.00" fill="#000000">CSE450</text>
<text text-anchor="middle" x="1108" y="-251.3" font-family="Sans-Serif" font-size="14.00" fill="#000000">Design&amp;Analysis of Algorithms</text>
</g>
<!-- CSE310&#45;&gt;CSE450 -->
<g id="edge38" class="edge">
<title>CSE310&#45;&gt;CSE450</title>
<path fill="none" stroke="#ecf0f1" d="M1292.4476,-324.9176C1254.8153,-312.1827 1210.2378,-297.0976 1174.3341,-284.9477"/>
<polygon fill="#ecf0f1" stroke="#ecf0f1" points="1175.0446,-281.4932 1164.4504,-281.603 1172.8008,-288.1238 1175.0446,-281.4932"/>
</g>
<!-- CSE412 -->
<g id="node38" class="node">
<title>CSE412</title>
<polygon fill="#2980b9" stroke="#000000" points="1392,-281.5 1230,-281.5 1230,-243.5 1392,-243.5 1392,-281.5"/>
<text text-anchor="middle" x="1311" y="-266.3" font-family="Sans-Serif" font-size="14.00" fill="#000000">CSE412</text>
<text text-anchor="middle" x="1311" y="-251.3" font-family="Sans-Serif" font-size="14.00" fill="#000000">Database Management</text>
</g>
<!-- CSE310&#45;&gt;CSE412 -->
<g id="edge39" class="edge">
<title>CSE310&#45;&gt;CSE412</title>
<path fill="none" stroke="#ecf0f1" d="M1352.998,-324.7971C1345.5895,-313.8078 1337.0123,-301.0849 1329.5479,-290.0128"/>
<polygon fill="#ecf0f1" stroke="#ecf0f1" points="1332.336,-287.887 1323.8439,-281.5518 1326.5318,-291.8 1332.336,-287.887"/>
</g>
<!-- CSE310&#45;&gt;CSE330 -->
<g id="edge41" class="edge">
<title>CSE310&#45;&gt;CSE330</title>
<path fill="none" stroke="#ecf0f1" d="M1403.1035,-324.7971C1417.1002,-313.155 1433.4362,-299.5671 1447.2733,-288.0577"/>
<polygon fill="#ecf0f1" stroke="#ecf0f1" points="1449.6451,-290.6374 1455.0951,-281.5518 1445.1688,-285.2557 1449.6451,-290.6374"/>
</g>
<!-- CSE466 -->
<g id="node43" class="node">
<title>CSE466</title>
<polygon fill="#8e44ad" stroke="#000000" points="1988,-281.5 1798,-281.5 1798,-243.5 1988,-243.5 1988,-281.5"/>
<text text-anchor="middle" x="1893" y="-266.3" font-family="Sans-Serif" font-size="14.00" fill="#000000">CSE466</text>
<text text-anchor="middle" x="1893" y="-251.3" font-family="Sans-Serif" font-size="14.00" fill="#000000">Computer Systems Security</text>
</g>
<!-- CSE310&#45;&gt;CSE466 -->
<g id="edge51" class="edge">
<title>CSE310&#45;&gt;CSE466</title>
<path fill="none" stroke="#ecf0f1" d="M1476.5025,-326.7219C1479.7,-326.1206 1482.8713,-325.5447 1486,-325 1619.6042,-301.7399 1655.6723,-313.7961 1789,-289 1797.0973,-287.4941 1805.499,-285.7181 1813.8586,-283.8103"/>
<polygon fill="#ecf0f1" stroke="#ecf0f1" points="1814.6951,-287.2091 1823.6318,-281.5183 1813.0968,-280.394 1814.6951,-287.2091"/>
</g>
<!-- CSE471 -->
<g id="node45" class="node">
<title>CSE471</title>
<polygon fill="#7f8c8d" stroke="#000000" points="762,-281.5 590,-281.5 590,-243.5 762,-243.5 762,-281.5"/>
<text text-anchor="middle" x="676" y="-266.3" font-family="Sans-Serif" font-size="14.00" fill="#000000">CSE471</text>
<text text-anchor="middle" x="676" y="-251.3" font-family="Sans-Serif" font-size="14.00" fill="#000000">Intro Artificial Intelligence</text>
</g>
<!-- CSE310&#45;&gt;CSE471 -->
<g id="edge54" class="edge">
<title>CSE310&#45;&gt;CSE471</title>
<path fill="none" stroke="#ecf0f1" d="M1265.2171,-326.4857C1262.116,-325.9573 1259.0386,-325.4601 1256,-325 1042.2878,-292.638 983.9198,-326.2206 771,-289 763.2056,-287.6375 755.1297,-285.9033 747.1278,-283.9762"/>
<polygon fill="#ecf0f1" stroke="#ecf0f1" points="747.9791,-280.5814 737.4279,-281.5418 746.2751,-287.3708 747.9791,-280.5814"/>
</g>
<!-- MAT416 -->
<g id="node36" class="node">
<title>MAT416</title>
<polygon fill="#2980b9" stroke="#000000" points="1216.5,-459.5 1113.5,-459.5 1113.5,-421.5 1216.5,-421.5 1216.5,-459.5"/>
<text text-anchor="middle" x="1165" y="-444.3" font-family="Sans-Serif" font-size="14.00" fill="#000000">MAT416</text>
<text text-anchor="middle" x="1165" y="-429.3" font-family="Sans-Serif" font-size="14.00" fill="#000000">Graph Theory</text>
</g>
<!-- MAT343&#45;&gt;MAT416 -->
<g id="edge37" class="edge">
<title>MAT343&#45;&gt;MAT416</title>
<path fill="none" stroke="#ecf0f1" d="M886.0347,-505.2205C889.0546,-504.4452 892.0508,-503.7017 895,-503 984.5673,-481.6894 1010.4733,-492.2878 1099,-467 1103.0738,-465.8363 1107.2412,-464.5085 1111.404,-463.0815"/>
<polygon fill="#ecf0f1" stroke="#ecf0f1" points="1112.8405,-466.2843 1121.0624,-459.6022 1110.468,-459.6985 1112.8405,-466.2843"/>
</g>
<!-- MAT343&#45;&gt;MAT447 -->
<g id="edge50" class="edge">
<title>MAT343&#45;&gt;MAT447</title>
<path fill="none" stroke="#ecf0f1" d="M886.4581,-504.8571C889.3317,-504.1941 892.1855,-503.5717 895,-503 1040.0166,-473.5407 1082.7415,-504.0765 1226,-467 1230.3167,-465.8828 1234.7236,-464.5226 1239.1011,-463.0148"/>
<polygon fill="#ecf0f1" stroke="#ecf0f1" points="1240.4198,-466.259 1248.5912,-459.5152 1237.9978,-459.6913 1240.4198,-466.259"/>
</g>
<!-- CSE477 -->
<g id="node44" class="node">
<title>CSE477</title>
<polygon fill="#8e44ad" stroke="#000000" points="894.5,-459.5 665.5,-459.5 665.5,-421.5 894.5,-421.5 894.5,-459.5"/>
<text text-anchor="middle" x="780" y="-444.3" font-family="Sans-Serif" font-size="14.00" fill="#000000">CSE477</text>
<text text-anchor="middle" x="780" y="-429.3" font-family="Sans-Serif" font-size="14.00" fill="#000000">Intro Computer&#45;Aided Geom Desg</text>
</g>
<!-- MAT343&#45;&gt;CSE477 -->
<g id="edge53" class="edge">
<title>MAT343&#45;&gt;CSE477</title>
<path fill="none" stroke="#ecf0f1" d="M798.8991,-502.7971C795.6973,-492.243 792.0104,-480.0899 788.748,-469.3358"/>
<polygon fill="#ecf0f1" stroke="#ecf0f1" points="792.0321,-468.105 785.7798,-459.5518 785.3336,-470.1372 792.0321,-468.105"/>
</g>
<!-- STP425 -->
<g id="node48" class="node">
<title>STP425</title>
<polygon fill="#7f8c8d" stroke="#000000" points="1060,-370.5 910,-370.5 910,-332.5 1060,-332.5 1060,-370.5"/>
<text text-anchor="middle" x="985" y="-355.3" font-family="Sans-Serif" font-size="14.00" fill="#000000">STP425</text>
<text text-anchor="middle" x="985" y="-340.3" font-family="Sans-Serif" font-size="14.00" fill="#000000">Stochastic Processes</text>
</g>
<!-- MAT343&#45;&gt;STP425 -->
<g id="edge57" class="edge">
<title>MAT343&#45;&gt;STP425</title>
<path fill="none" stroke="#ecf0f1" d="M886.0653,-505.3447C889.0767,-504.5347 892.0627,-503.75 895,-503 970.2516,-483.7853 1017.0646,-527.3103 1066,-467 1080.8418,-448.7083 1076.39,-435.1403 1066,-414 1058.4739,-398.6868 1045.1906,-386.0655 1031.5306,-376.272"/>
<polygon fill="#ecf0f1" stroke="#ecf0f1" points="1033.2736,-373.2261 1023.0246,-370.5409 1029.3621,-379.0313 1033.2736,-373.2261"/>
</g>
<!-- CSE485 -->
<g id="node41" class="node">
<title>CSE485</title>
<polygon fill="#8e44ad" stroke="#000000" points="1676,-200 1474,-200 1474,-162 1676,-162 1676,-200"/>
<text text-anchor="middle" x="1575" y="-184.8" font-family="Sans-Serif" font-size="14.00" fill="#000000">CSE485</text>
<text text-anchor="middle" x="1575" y="-169.8" font-family="Sans-Serif" font-size="14.00" fill="#000000">Computer Sci Capstone Proj I</text>
</g>
<!-- CSE340&#45;&gt;CSE485 -->
<g id="edge45" class="edge">
<title>CSE340&#45;&gt;CSE485</title>
<path fill="none" stroke="#ecf0f1" d="M1640.2386,-235.8139C1629.1233,-226.4747 1616.6711,-216.0123 1605.6486,-206.7511"/>
<polygon fill="#ecf0f1" stroke="#ecf0f1" points="1607.8225,-204.0062 1597.9147,-200.2531 1603.3195,-209.3656 1607.8225,-204.0062"/>
</g>
<!-- CSE365&#45;&gt;CSE466 -->
<g id="edge52" class="edge">
<title>CSE365&#45;&gt;CSE466</title>
<path fill="none" stroke="#ecf0f1" d="M1841.9024,-324.7971C1851.0946,-313.5902 1861.7656,-300.5803 1870.9712,-289.357"/>
<polygon fill="#ecf0f1" stroke="#ecf0f1" points="1873.7375,-291.5033 1877.3733,-281.5518 1868.3252,-287.064 1873.7375,-291.5033"/>
</g>
<!-- MAT300&#45;&gt;MAT371 -->
<g id="edge31" class="edge">
<title>MAT300&#45;&gt;MAT371</title>
<path fill="none" stroke="#ecf0f1" d="M1148.4079,-502.9176C1115.3532,-490.2916 1076.2503,-475.3553 1044.5847,-463.2598"/>
<polygon fill="#ecf0f1" stroke="#ecf0f1" points="1045.6018,-459.9017 1035.0112,-459.603 1043.1039,-466.4409 1045.6018,-459.9017"/>
</g>
<!-- MAT300&#45;&gt;MAT416 -->
<g id="edge36" class="edge">
<title>MAT300&#45;&gt;MAT416</title>
<path fill="none" stroke="#ecf0f1" d="M1202.0983,-502.7971C1195.6189,-491.9166 1188.1274,-479.3366 1181.5802,-468.3421"/>
<polygon fill="#ecf0f1" stroke="#ecf0f1" points="1184.4692,-466.3529 1176.3454,-459.5518 1178.4548,-469.9345 1184.4692,-466.3529"/>
</g>
<!-- MAT300&#45;&gt;MAT447 -->
<g id="edge49" class="edge">
<title>MAT300&#45;&gt;MAT447</title>
<path fill="none" stroke="#ecf0f1" d="M1239.3023,-502.7971C1248.1559,-491.699 1258.4199,-478.8328 1267.3136,-467.6844"/>
<polygon fill="#ecf0f1" stroke="#ecf0f1" points="1270.3012,-469.5517 1273.8014,-459.5518 1264.8291,-465.1863 1270.3012,-469.5517"/>
</g>
<!-- PHY132 -->
<g id="node29" class="node">
<title>PHY132</title>
<polygon fill="#16a085" stroke="#000000" points="513.5,-378 344.5,-378 344.5,-325 513.5,-325 513.5,-378"/>
<text text-anchor="middle" x="429" y="-362.8" font-family="Sans-Serif" font-size="14.00" fill="#000000">PHY132</text>
<text text-anchor="middle" x="429" y="-347.8" font-family="Sans-Serif" font-size="14.00" fill="#000000">University Physics Lab II</text>
<text text-anchor="middle" x="429" y="-332.8" font-family="Sans-Serif" font-size="14.00" fill="#000000">A&#45;</text>
</g>
<!-- PHY131&#45;&gt;PHY132 -->
<g id="edge28" class="edge">
<title>PHY131&#45;&gt;PHY132</title>
<path fill="none" stroke="#ecf0f1" d="M429,-413.7971C429,-405.7887 429,-396.8597 429,-388.3198"/>
<polygon fill="#ecf0f1" stroke="#ecf0f1" points="432.5001,-388.1841 429,-378.1841 425.5001,-388.1841 432.5001,-388.1841"/>
</g>
<!-- MAT371&#45;&gt;STP425 -->
<g id="edge58" class="edge">
<title>MAT371&#45;&gt;STP425</title>
<path fill="none" stroke="#ecf0f1" d="M985,-421.1883C985,-409.409 985,-394.1187 985,-380.8628"/>
<polygon fill="#ecf0f1" stroke="#ecf0f1" points="988.5001,-380.774 985,-370.774 981.5001,-380.774 988.5001,-380.774"/>
</g>
<!-- CSE360&#45;&gt;CSE485 -->
<g id="edge47" class="edge">
<title>CSE360&#45;&gt;CSE485</title>
<path fill="none" stroke="#ecf0f1" d="M2019.0753,-332.435C2022.0407,-306.6469 2022.8558,-261.0053 1997,-236 1974.9386,-214.6643 1803.74,-197.8548 1686.2935,-188.6841"/>
<polygon fill="#ecf0f1" stroke="#ecf0f1" points="1686.4063,-185.1824 1676.1664,-187.9017 1685.8671,-192.1616 1686.4063,-185.1824"/>
</g>
<!-- CSE355&#45;&gt;CSE485 -->
<g id="edge46" class="edge">
<title>CSE355&#45;&gt;CSE485</title>
<path fill="none" stroke="#ecf0f1" d="M957.7816,-243.4602C970.4771,-240.6602 983.572,-238.0379 996,-236 1157.5696,-209.5066 1346.7529,-194.5094 1463.7492,-187.0739"/>
<polygon fill="#ecf0f1" stroke="#ecf0f1" points="1464.0318,-190.5632 1473.7926,-186.443 1463.5928,-183.577 1464.0318,-190.5632"/>
</g>
<!-- STP421&#45;&gt;STP425 -->
<g id="edge59" class="edge">
<title>STP421&#45;&gt;STP425</title>
<path fill="none" stroke="#ecf0f1" d="M639.4047,-421.4017C645.1497,-418.6259 651.1549,-416.0266 657,-414 736.9673,-386.2736 832.4101,-369.8438 899.6644,-360.8438"/>
<polygon fill="#ecf0f1" stroke="#ecf0f1" points="900.3329,-364.2862 909.7931,-359.516 899.4229,-357.3456 900.3329,-364.2862"/>
</g>
<!-- CSE330&#45;&gt;CSE485 -->
<g id="edge44" class="edge">
<title>CSE330&#45;&gt;CSE485</title>
<path fill="none" stroke="#ecf0f1" d="M1500.9876,-243.1856C1513.9134,-232.3253 1530.2189,-218.6254 1544.2334,-206.8503"/>
<polygon fill="#ecf0f1" stroke="#ecf0f1" points="1546.7726,-209.2883 1552.1774,-200.1757 1542.2696,-203.9289 1546.7726,-209.2883"/>
</g>
<!-- CSE486 -->
<g id="node46" class="node">
<title>CSE486</title>
<polygon fill="#7f8c8d" stroke="#000000" points="1678,-126 1472,-126 1472,-88 1678,-88 1678,-126"/>
<text text-anchor="middle" x="1575" y="-110.8" font-family="Sans-Serif" font-size="14.00" fill="#000000">CSE486</text>
<text text-anchor="middle" x="1575" y="-95.8" font-family="Sans-Serif" font-size="14.00" fill="#000000">Computer Sci Capstone Proj II</text>
</g>
<!-- CSE485&#45;&gt;CSE486 -->
<g id="edge55" class="edge">
<title>CSE485&#45;&gt;CSE486</title>
<path fill="none" stroke="#ecf0f1" d="M1575,-161.9432C1575,-154.1493 1575,-144.9538 1575,-136.3381"/>
<polygon fill="#ecf0f1" stroke="#ecf0f1" points="1578.5001,-136.2494 1575,-126.2495 1571.5001,-136.2495 1578.5001,-136.2494"/>
</g>
<!-- MAT448 -->
<g id="node47" class="node">
<title>MAT448</title>
<polygon fill="#7f8c8d" stroke="#000000" points="1247,-370.5 1135,-370.5 1135,-332.5 1247,-332.5 1247,-370.5"/>
<text text-anchor="middle" x="1191" y="-355.3" font-family="Sans-Serif" font-size="14.00" fill="#000000">MAT448</text>
<text text-anchor="middle" x="1191" y="-340.3" font-family="Sans-Serif" font-size="14.00" fill="#000000">Cryptography II</text>
</g>
<!-- MAT447&#45;&gt;MAT448 -->
<g id="edge56" class="edge">
<title>MAT447&#45;&gt;MAT448</title>
<path fill="none" stroke="#ecf0f1" d="M1267.7355,-421.1883C1253.7376,-408.476 1235.237,-391.6744 1219.9089,-377.754"/>
<polygon fill="#ecf0f1" stroke="#ecf0f1" points="1221.9789,-374.906 1212.223,-370.774 1217.2728,-380.088 1221.9789,-374.906"/>
</g>
</g>
</svg>
