<?xml version="1.0" encoding="UTF-8" standalone="no"?>
<!DOCTYPE svg PUBLIC "-//W3C//DTD SVG 1.1//EN"
 "http://www.w3.org/Graphics/SVG/1.1/DTD/svg11.dtd">
<!-- Generated by graphviz version 2.40.1 (20161225.0304)
 -->
<!-- Title: %3 Pages: 1 -->
<svg width="2025pt" height="773pt"
 viewBox="0.00 0.00 2024.50 772.50" xmlns="http://www.w3.org/2000/svg" xmlns:xlink="http://www.w3.org/1999/xlink">
<g id="graph0" class="graph" transform="scale(1 1) rotate(0) translate(4 768.5)">
<title>%3</title>
<polygon fill="#000000" stroke="transparent" points="-4,4 -4,-768.5 2020.5,-768.5 2020.5,4 -4,4"/>
<g id="clust1" class="cluster">
<title>cluster</title>
<polygon fill="#2c3e50" stroke="#000000" points="8,-8 8,-756.5 103,-756.5 103,-8 8,-8"/>
<text text-anchor="middle" x="55.5" y="-741.3" font-family="Times,serif" font-size="14.00" fill="#ecf0f1">Semester Key</text>
</g>
<!-- 0 -->
<g id="node1" class="node">
<title>0</title>
<polygon fill="#bdc3c7" stroke="#bdc3c7" points="81,-725.5 27,-725.5 27,-689.5 81,-689.5 81,-725.5"/>
<text text-anchor="middle" x="54" y="-703.8" font-family="Times,serif" font-size="14.00" fill="#000000">0</text>
</g>
<!-- 1 -->
<g id="node2" class="node">
<title>1</title>
<polygon fill="#c0392b" stroke="#c0392b" points="81,-636.5 27,-636.5 27,-600.5 81,-600.5 81,-636.5"/>
<text text-anchor="middle" x="54" y="-614.8" font-family="Times,serif" font-size="14.00" fill="#000000">1</text>
</g>
<!-- 0&#45;&gt;1 -->
<g id="edge1" class="edge">
<title>0&#45;&gt;1</title>
<path fill="none" stroke="#ecf0f1" d="M54,-689.4895C54,-677.2658 54,-660.8495 54,-646.8824"/>
<polygon fill="#ecf0f1" stroke="#ecf0f1" points="57.5001,-646.7891 54,-636.7892 50.5001,-646.7892 57.5001,-646.7891"/>
</g>
<!-- 2 -->
<g id="node3" class="node">
<title>2</title>
<polygon fill="#d35400" stroke="#d35400" points="81,-547.5 27,-547.5 27,-511.5 81,-511.5 81,-547.5"/>
<text text-anchor="middle" x="54" y="-525.8" font-family="Times,serif" font-size="14.00" fill="#000000">2</text>
</g>
<!-- 1&#45;&gt;2 -->
<g id="edge2" class="edge">
<title>1&#45;&gt;2</title>
<path fill="none" stroke="#ecf0f1" d="M54,-600.4895C54,-588.2658 54,-571.8495 54,-557.8824"/>
<polygon fill="#ecf0f1" stroke="#ecf0f1" points="57.5001,-557.7891 54,-547.7892 50.5001,-557.7892 57.5001,-557.7891"/>
</g>
<!-- 3 -->
<g id="node4" class="node">
<title>3</title>
<polygon fill="#f39c12" stroke="#f39c12" points="81,-458.5 27,-458.5 27,-422.5 81,-422.5 81,-458.5"/>
<text text-anchor="middle" x="54" y="-436.8" font-family="Times,serif" font-size="14.00" fill="#000000">3</text>
</g>
<!-- 2&#45;&gt;3 -->
<g id="edge3" class="edge">
<title>2&#45;&gt;3</title>
<path fill="none" stroke="#ecf0f1" d="M54,-511.4895C54,-499.2658 54,-482.8495 54,-468.8824"/>
<polygon fill="#ecf0f1" stroke="#ecf0f1" points="57.5001,-468.7891 54,-458.7892 50.5001,-468.7892 57.5001,-468.7891"/>
</g>
<!-- 4 -->
<g id="node5" class="node">
<title>4</title>
<polygon fill="#16a085" stroke="#16a085" points="81,-369.5 27,-369.5 27,-333.5 81,-333.5 81,-369.5"/>
<text text-anchor="middle" x="54" y="-347.8" font-family="Times,serif" font-size="14.00" fill="#000000">4</text>
</g>
<!-- 3&#45;&gt;4 -->
<g id="edge4" class="edge">
<title>3&#45;&gt;4</title>
<path fill="none" stroke="#ecf0f1" d="M54,-422.4895C54,-410.2658 54,-393.8495 54,-379.8824"/>
<polygon fill="#ecf0f1" stroke="#ecf0f1" points="57.5001,-379.7891 54,-369.7892 50.5001,-379.7892 57.5001,-379.7891"/>
</g>
<!-- 5 -->
<g id="node6" class="node">
<title>5</title>
<polygon fill="#27ae60" stroke="#27ae60" points="81,-280.5 27,-280.5 27,-244.5 81,-244.5 81,-280.5"/>
<text text-anchor="middle" x="54" y="-258.8" font-family="Times,serif" font-size="14.00" fill="#000000">5</text>
</g>
<!-- 4&#45;&gt;5 -->
<g id="edge5" class="edge">
<title>4&#45;&gt;5</title>
<path fill="none" stroke="#ecf0f1" d="M54,-333.4895C54,-321.2658 54,-304.8495 54,-290.8824"/>
<polygon fill="#ecf0f1" stroke="#ecf0f1" points="57.5001,-290.7891 54,-280.7892 50.5001,-290.7892 57.5001,-290.7891"/>
</g>
<!-- 6 -->
<g id="node7" class="node">
<title>6</title>
<polygon fill="#2980b9" stroke="#2980b9" points="81,-199 27,-199 27,-163 81,-163 81,-199"/>
<text text-anchor="middle" x="54" y="-177.3" font-family="Times,serif" font-size="14.00" fill="#000000">6</text>
</g>
<!-- 5&#45;&gt;6 -->
<g id="edge6" class="edge">
<title>5&#45;&gt;6</title>
<path fill="none" stroke="#ecf0f1" d="M54,-244.4125C54,-234.072 54,-220.8769 54,-209.2037"/>
<polygon fill="#ecf0f1" stroke="#ecf0f1" points="57.5001,-209.0369 54,-199.0369 50.5001,-209.037 57.5001,-209.0369"/>
</g>
<!-- 7 -->
<g id="node8" class="node">
<title>7</title>
<polygon fill="#8e44ad" stroke="#8e44ad" points="81,-125 27,-125 27,-89 81,-89 81,-125"/>
<text text-anchor="middle" x="54" y="-103.3" font-family="Times,serif" font-size="14.00" fill="#000000">7</text>
</g>
<!-- 6&#45;&gt;7 -->
<g id="edge7" class="edge">
<title>6&#45;&gt;7</title>
<path fill="none" stroke="#ecf0f1" d="M54,-162.7079C54,-154.4635 54,-144.5376 54,-135.3622"/>
<polygon fill="#ecf0f1" stroke="#ecf0f1" points="57.5001,-135.0817 54,-125.0817 50.5001,-135.0818 57.5001,-135.0817"/>
</g>
<!-- 8 -->
<g id="node9" class="node">
<title>8</title>
<polygon fill="#7f8c8d" stroke="#7f8c8d" points="81,-52 27,-52 27,-16 81,-16 81,-52"/>
<text text-anchor="middle" x="54" y="-30.3" font-family="Times,serif" font-size="14.00" fill="#000000">8</text>
</g>
<!-- 7&#45;&gt;8 -->
<g id="edge8" class="edge">
<title>7&#45;&gt;8</title>
<path fill="none" stroke="#ecf0f1" d="M54,-88.9551C54,-80.8828 54,-71.1764 54,-62.1817"/>
<polygon fill="#ecf0f1" stroke="#ecf0f1" points="57.5001,-62.0903 54,-52.0904 50.5001,-62.0904 57.5001,-62.0903"/>
</g>
<!-- MAT270 -->
<g id="node10" class="node">
<title>MAT270</title>
<polygon fill="#bdc3c7" stroke="#000000" points="1197,-734 995,-734 995,-681 1197,-681 1197,-734"/>
<text text-anchor="middle" x="1096" y="-718.8" font-family="Times,serif" font-size="14.00" fill="#000000">MAT270</text>
<text text-anchor="middle" x="1096" y="-703.8" font-family="Times,serif" font-size="14.00" fill="#000000">Calculus w/ Analytic Geometry I</text>
<text text-anchor="middle" x="1096" y="-688.8" font-family="Times,serif" font-size="14.00" fill="#000000">AP</text>
</g>
<!-- MAT271 -->
<g id="node11" class="node">
<title>MAT271</title>
<polygon fill="#bdc3c7" stroke="#000000" points="787.5,-645 580.5,-645 580.5,-592 787.5,-592 787.5,-645"/>
<text text-anchor="middle" x="684" y="-629.8" font-family="Times,serif" font-size="14.00" fill="#000000">MAT271</text>
<text text-anchor="middle" x="684" y="-614.8" font-family="Times,serif" font-size="14.00" fill="#000000">Calculus w/ Analytic Geometry II</text>
<text text-anchor="middle" x="684" y="-599.8" font-family="Times,serif" font-size="14.00" fill="#000000">AP</text>
</g>
<!-- MAT270&#45;&gt;MAT271 -->
<g id="edge9" class="edge">
<title>MAT270&#45;&gt;MAT271</title>
<path fill="none" stroke="#ecf0f1" d="M994.9497,-685.6712C935.1342,-672.7499 859.2107,-656.3489 797.3602,-642.988"/>
<polygon fill="#ecf0f1" stroke="#ecf0f1" points="798.0727,-639.5612 787.5591,-640.8708 796.5946,-646.4034 798.0727,-639.5612"/>
</g>
<!-- MAT243 -->
<g id="node19" class="node">
<title>MAT243</title>
<polygon fill="#d35400" stroke="#000000" points="1383,-645 1227,-645 1227,-592 1383,-592 1383,-645"/>
<text text-anchor="middle" x="1305" y="-629.8" font-family="Times,serif" font-size="14.00" fill="#000000">MAT243</text>
<text text-anchor="middle" x="1305" y="-614.8" font-family="Times,serif" font-size="14.00" fill="#000000">Discrete Math Structures</text>
<text text-anchor="middle" x="1305" y="-599.8" font-family="Times,serif" font-size="14.00" fill="#000000">A+</text>
</g>
<!-- MAT270&#45;&gt;MAT243 -->
<g id="edge14" class="edge">
<title>MAT270&#45;&gt;MAT243</title>
<path fill="none" stroke="#ecf0f1" d="M1158.4238,-680.9176C1181.8913,-670.9243 1208.7575,-659.4837 1233.0245,-649.1498"/>
<polygon fill="#ecf0f1" stroke="#ecf0f1" points="1234.7077,-652.2373 1242.537,-645.0991 1231.9651,-645.7969 1234.7077,-652.2373"/>
</g>
<!-- MAT300 -->
<g id="node27" class="node">
<title>MAT300</title>
<polygon fill="#16a085" stroke="#000000" points="1220,-556 1066,-556 1066,-503 1220,-503 1220,-556"/>
<text text-anchor="middle" x="1143" y="-540.8" font-family="Times,serif" font-size="14.00" fill="#000000">MAT300</text>
<text text-anchor="middle" x="1143" y="-525.8" font-family="Times,serif" font-size="14.00" fill="#000000">Mathematical Structures</text>
<text text-anchor="middle" x="1143" y="-510.8" font-family="Times,serif" font-size="14.00" fill="#000000">B</text>
</g>
<!-- MAT270&#45;&gt;MAT300 -->
<g id="edge26" class="edge">
<title>MAT270&#45;&gt;MAT300</title>
<path fill="none" stroke="#ecf0f1" d="M1109.8356,-680.7037C1114.9462,-669.8592 1120.3705,-657.0693 1124,-645 1131.7647,-619.1796 1136.5845,-589.0987 1139.4262,-566.1092"/>
<polygon fill="#ecf0f1" stroke="#ecf0f1" points="1142.9131,-566.4247 1140.5962,-556.0863 1135.9603,-565.613 1142.9131,-566.4247"/>
</g>
<!-- CHM113 -->
<g id="node33" class="node">
<title>CHM113</title>
<polygon fill="#27ae60" stroke="#000000" points="1114.5,-637.5 983.5,-637.5 983.5,-599.5 1114.5,-599.5 1114.5,-637.5"/>
<text text-anchor="middle" x="1049" y="-622.3" font-family="Times,serif" font-size="14.00" fill="#000000">CHM113</text>
<text text-anchor="middle" x="1049" y="-607.3" font-family="Times,serif" font-size="14.00" fill="#000000">General Chemistry I</text>
</g>
<!-- MAT270&#45;&gt;CHM113 -->
<g id="edge35" class="edge">
<title>MAT270&#45;&gt;CHM113</title>
<path fill="none" stroke="#ecf0f1" d="M1081.8985,-680.7971C1076.21,-670.0254 1069.642,-657.5881 1063.8776,-646.6725"/>
<polygon fill="#ecf0f1" stroke="#ecf0f1" points="1066.8258,-644.7601 1059.061,-637.5518 1060.6359,-648.0289 1066.8258,-644.7601"/>
</g>
<!-- MAT267 -->
<g id="node12" class="node">
<title>MAT267</title>
<polygon fill="#bdc3c7" stroke="#000000" points="666,-556 504,-556 504,-503 666,-503 666,-556"/>
<text text-anchor="middle" x="585" y="-540.8" font-family="Times,serif" font-size="14.00" fill="#000000">MAT267</text>
<text text-anchor="middle" x="585" y="-525.8" font-family="Times,serif" font-size="14.00" fill="#000000">Calculus for Engineers III</text>
<text text-anchor="middle" x="585" y="-510.8" font-family="Times,serif" font-size="14.00" fill="#000000">TC</text>
</g>
<!-- MAT271&#45;&gt;MAT267 -->
<g id="edge10" class="edge">
<title>MAT271&#45;&gt;MAT267</title>
<path fill="none" stroke="#ecf0f1" d="M654.2967,-591.7971C644.2139,-582.7327 632.819,-572.4888 622.2248,-562.9647"/>
<polygon fill="#ecf0f1" stroke="#ecf0f1" points="624.4589,-560.2668 614.6823,-556.1841 619.7791,-565.4725 624.4589,-560.2668"/>
</g>
<!-- IEE380 -->
<g id="node16" class="node">
<title>IEE380</title>
<polygon fill="#c0392b" stroke="#000000" points="880,-556 684,-556 684,-503 880,-503 880,-556"/>
<text text-anchor="middle" x="782" y="-540.8" font-family="Times,serif" font-size="14.00" fill="#000000">IEE380</text>
<text text-anchor="middle" x="782" y="-525.8" font-family="Times,serif" font-size="14.00" fill="#000000">Prob &amp; Stats Engr Prob Solving</text>
<text text-anchor="middle" x="782" y="-510.8" font-family="Times,serif" font-size="14.00" fill="#000000">A</text>
</g>
<!-- MAT271&#45;&gt;IEE380 -->
<g id="edge12" class="edge">
<title>MAT271&#45;&gt;IEE380</title>
<path fill="none" stroke="#ecf0f1" d="M713.4032,-591.7971C723.3842,-582.7327 734.664,-572.4888 745.1512,-562.9647"/>
<polygon fill="#ecf0f1" stroke="#ecf0f1" points="747.5677,-565.4981 752.6175,-556.1841 742.8616,-560.3161 747.5677,-565.4981"/>
</g>
<!-- PHY121 -->
<g id="node20" class="node">
<title>PHY121</title>
<polygon fill="#d35400" stroke="#000000" points="485.5,-556 318.5,-556 318.5,-503 485.5,-503 485.5,-556"/>
<text text-anchor="middle" x="402" y="-540.8" font-family="Times,serif" font-size="14.00" fill="#000000">PHY121</text>
<text text-anchor="middle" x="402" y="-525.8" font-family="Times,serif" font-size="14.00" fill="#000000">Univ Physics I: Mechanics</text>
<text text-anchor="middle" x="402" y="-510.8" font-family="Times,serif" font-size="14.00" fill="#000000">A+</text>
</g>
<!-- MAT271&#45;&gt;PHY121 -->
<g id="edge15" class="edge">
<title>MAT271&#45;&gt;PHY121</title>
<path fill="none" stroke="#ecf0f1" d="M599.7727,-591.9176C566.9799,-581.5681 529.2687,-569.6664 495.6282,-559.0493"/>
<polygon fill="#ecf0f1" stroke="#ecf0f1" points="496.3834,-555.6176 485.7937,-555.9455 494.2766,-562.293 496.3834,-555.6176"/>
</g>
<!-- MAT343 -->
<g id="node24" class="node">
<title>MAT343</title>
<polygon fill="#f39c12" stroke="#000000" points="1048,-556 898,-556 898,-503 1048,-503 1048,-556"/>
<text text-anchor="middle" x="973" y="-540.8" font-family="Times,serif" font-size="14.00" fill="#000000">MAT343</text>
<text text-anchor="middle" x="973" y="-525.8" font-family="Times,serif" font-size="14.00" fill="#000000">Applied Linear Algebra</text>
<text text-anchor="middle" x="973" y="-510.8" font-family="Times,serif" font-size="14.00" fill="#000000">A+</text>
</g>
<!-- MAT271&#45;&gt;MAT343 -->
<g id="edge22" class="edge">
<title>MAT271&#45;&gt;MAT343</title>
<path fill="none" stroke="#ecf0f1" d="M771.5925,-591.9984C805.4556,-581.7036 844.737,-569.7024 888.2575,-556.2214"/>
<polygon fill="#ecf0f1" stroke="#ecf0f1" points="889.3905,-559.5345 897.9054,-553.2301 887.3175,-552.8485 889.3905,-559.5345"/>
</g>
<!-- MAT275 -->
<g id="node30" class="node">
<title>MAT275</title>
<polygon fill="#27ae60" stroke="#000000" points="300.5,-548.5 111.5,-548.5 111.5,-510.5 300.5,-510.5 300.5,-548.5"/>
<text text-anchor="middle" x="206" y="-533.3" font-family="Times,serif" font-size="14.00" fill="#000000">MAT275</text>
<text text-anchor="middle" x="206" y="-518.3" font-family="Times,serif" font-size="14.00" fill="#000000">Modern Differential Equations</text>
</g>
<!-- MAT271&#45;&gt;MAT275 -->
<g id="edge31" class="edge">
<title>MAT271&#45;&gt;MAT275</title>
<path fill="none" stroke="#ecf0f1" d="M580.4874,-603.7159C504.9315,-592.3259 400.2093,-575.2961 309,-556 301.7149,-554.4588 294.1691,-552.7455 286.6253,-550.9527"/>
<polygon fill="#ecf0f1" stroke="#ecf0f1" points="287.2744,-547.5088 276.7316,-548.5577 285.6274,-554.3123 287.2744,-547.5088"/>
</g>
<!-- PHY131 -->
<g id="node28" class="node">
<title>PHY131</title>
<polygon fill="#16a085" stroke="#000000" points="543,-467 321,-467 321,-414 543,-414 543,-467"/>
<text text-anchor="middle" x="432" y="-451.8" font-family="Times,serif" font-size="14.00" fill="#000000">PHY131</text>
<text text-anchor="middle" x="432" y="-436.8" font-family="Times,serif" font-size="14.00" fill="#000000">University Physics II: Elctrc/Magnet</text>
<text text-anchor="middle" x="432" y="-421.8" font-family="Times,serif" font-size="14.00" fill="#000000">A</text>
</g>
<!-- MAT267&#45;&gt;PHY131 -->
<g id="edge28" class="edge">
<title>MAT267&#45;&gt;PHY131</title>
<path fill="none" stroke="#ecf0f1" d="M539.095,-502.7971C522.5297,-493.1611 503.6729,-482.1921 486.4473,-472.1719"/>
<polygon fill="#ecf0f1" stroke="#ecf0f1" points="488.0126,-469.0335 477.6088,-467.0306 484.4929,-475.0842 488.0126,-469.0335"/>
</g>
<!-- MAT371 -->
<g id="node31" class="node">
<title>MAT371</title>
<polygon fill="#27ae60" stroke="#000000" points="1061,-459.5 927,-459.5 927,-421.5 1061,-421.5 1061,-459.5"/>
<text text-anchor="middle" x="994" y="-444.3" font-family="Times,serif" font-size="14.00" fill="#000000">MAT371</text>
<text text-anchor="middle" x="994" y="-429.3" font-family="Times,serif" font-size="14.00" fill="#000000">Advanced Calculus I</text>
</g>
<!-- MAT267&#45;&gt;MAT371 -->
<g id="edge32" class="edge">
<title>MAT267&#45;&gt;MAT371</title>
<path fill="none" stroke="#ecf0f1" d="M666.3033,-505.0093C669.2311,-504.3032 672.1367,-503.6304 675,-503 781.625,-479.5241 811.9841,-493.0889 918,-467 923.2579,-465.7061 928.6653,-464.1968 934.0566,-462.5668"/>
<polygon fill="#ecf0f1" stroke="#ecf0f1" points="935.2234,-465.8689 943.7076,-459.5232 933.118,-459.193 935.2234,-465.8689"/>
</g>
<!-- STP421 -->
<g id="node35" class="node">
<title>STP421</title>
<polygon fill="#2980b9" stroke="#000000" points="640.5,-459.5 561.5,-459.5 561.5,-421.5 640.5,-421.5 640.5,-459.5"/>
<text text-anchor="middle" x="601" y="-444.3" font-family="Times,serif" font-size="14.00" fill="#000000">STP421</text>
<text text-anchor="middle" x="601" y="-429.3" font-family="Times,serif" font-size="14.00" fill="#000000">Probability</text>
</g>
<!-- MAT267&#45;&gt;STP421 -->
<g id="edge37" class="edge">
<title>MAT267&#45;&gt;STP421</title>
<path fill="none" stroke="#ecf0f1" d="M589.8005,-502.7971C591.6783,-492.3518 593.8377,-480.3403 595.7562,-469.6689"/>
<polygon fill="#ecf0f1" stroke="#ecf0f1" points="599.2503,-470.0133 597.575,-459.5518 592.3607,-468.7747 599.2503,-470.0133"/>
</g>
<!-- CSE110 -->
<g id="node13" class="node">
<title>CSE110</title>
<polygon fill="#bdc3c7" stroke="#000000" points="1588,-645 1420,-645 1420,-592 1588,-592 1588,-645"/>
<text text-anchor="middle" x="1504" y="-629.8" font-family="Times,serif" font-size="14.00" fill="#000000">CSE110</text>
<text text-anchor="middle" x="1504" y="-614.8" font-family="Times,serif" font-size="14.00" fill="#000000">Principles of Programming</text>
<text text-anchor="middle" x="1504" y="-599.8" font-family="Times,serif" font-size="14.00" fill="#000000">AP</text>
</g>
<!-- CSE205 -->
<g id="node14" class="node">
<title>CSE205</title>
<polygon fill="#c0392b" stroke="#000000" points="1588.5,-556 1385.5,-556 1385.5,-503 1588.5,-503 1588.5,-556"/>
<text text-anchor="middle" x="1487" y="-540.8" font-family="Times,serif" font-size="14.00" fill="#000000">CSE205</text>
<text text-anchor="middle" x="1487" y="-525.8" font-family="Times,serif" font-size="14.00" fill="#000000">Object&#45;Oriented Program &amp; Data</text>
<text text-anchor="middle" x="1487" y="-510.8" font-family="Times,serif" font-size="14.00" fill="#000000">A+</text>
</g>
<!-- CSE110&#45;&gt;CSE205 -->
<g id="edge11" class="edge">
<title>CSE110&#45;&gt;CSE205</title>
<path fill="none" stroke="#ecf0f1" d="M1498.8994,-591.7971C1497.3529,-583.7007 1495.6267,-574.6633 1493.9793,-566.0384"/>
<polygon fill="#ecf0f1" stroke="#ecf0f1" points="1497.4111,-565.3498 1492.097,-556.1841 1490.5354,-566.6632 1497.4111,-565.3498"/>
</g>
<!-- CSE230 -->
<g id="node22" class="node">
<title>CSE230</title>
<polygon fill="#f39c12" stroke="#000000" points="2013.5,-378 1804.5,-378 1804.5,-325 2013.5,-325 2013.5,-378"/>
<text text-anchor="middle" x="1909" y="-362.8" font-family="Times,serif" font-size="14.00" fill="#000000">CSE230</text>
<text text-anchor="middle" x="1909" y="-347.8" font-family="Times,serif" font-size="14.00" fill="#000000">Computer Org/Assemb Lang Prog</text>
<text text-anchor="middle" x="1909" y="-332.8" font-family="Times,serif" font-size="14.00" fill="#000000">A+</text>
</g>
<!-- CSE110&#45;&gt;CSE230 -->
<g id="edge18" class="edge">
<title>CSE110&#45;&gt;CSE230</title>
<path fill="none" stroke="#ecf0f1" d="M1588.1365,-609.6193C1661.1865,-600.2297 1759.5858,-582.9895 1788,-556 1835.4532,-510.9262 1790.3815,-468.2452 1827,-414 1834.5019,-402.887 1844.6342,-392.9264 1855.2152,-384.3952"/>
<polygon fill="#ecf0f1" stroke="#ecf0f1" points="1857.5499,-387.0156 1863.358,-378.1546 1853.2918,-381.4596 1857.5499,-387.0156"/>
</g>
<!-- CSE240 -->
<g id="node18" class="node">
<title>CSE240</title>
<polygon fill="#d35400" stroke="#000000" points="1595.5,-467 1392.5,-467 1392.5,-414 1595.5,-414 1595.5,-467"/>
<text text-anchor="middle" x="1494" y="-451.8" font-family="Times,serif" font-size="14.00" fill="#000000">CSE240</text>
<text text-anchor="middle" x="1494" y="-436.8" font-family="Times,serif" font-size="14.00" fill="#000000">Intro to Programming Languages</text>
<text text-anchor="middle" x="1494" y="-421.8" font-family="Times,serif" font-size="14.00" fill="#000000">A+</text>
</g>
<!-- CSE205&#45;&gt;CSE240 -->
<g id="edge13" class="edge">
<title>CSE205&#45;&gt;CSE240</title>
<path fill="none" stroke="#ecf0f1" d="M1489.1002,-502.7971C1489.7301,-494.7887 1490.4324,-485.8597 1491.1041,-477.3198"/>
<polygon fill="#ecf0f1" stroke="#ecf0f1" points="1494.6063,-477.4278 1491.9013,-467.1841 1487.6278,-476.8788 1494.6063,-477.4278"/>
</g>
<!-- CSE301 -->
<g id="node40" class="node">
<title>CSE301</title>
<polygon fill="#2980b9" stroke="#000000" points="1739,-459.5 1621,-459.5 1621,-421.5 1739,-421.5 1739,-459.5"/>
<text text-anchor="middle" x="1680" y="-444.3" font-family="Times,serif" font-size="14.00" fill="#000000">CSE301</text>
<text text-anchor="middle" x="1680" y="-429.3" font-family="Times,serif" font-size="14.00" fill="#000000">Computing Ethics</text>
</g>
<!-- CSE205&#45;&gt;CSE301 -->
<g id="edge45" class="edge">
<title>CSE205&#45;&gt;CSE301</title>
<path fill="none" stroke="#ecf0f1" d="M1544.6449,-502.9176C1571.5529,-490.5093 1603.2996,-475.8696 1629.2823,-463.888"/>
<polygon fill="#ecf0f1" stroke="#ecf0f1" points="1630.9591,-466.969 1638.5744,-459.603 1628.0278,-460.6123 1630.9591,-466.969"/>
</g>
<!-- MAT447 -->
<g id="node42" class="node">
<title>MAT447</title>
<polygon fill="#8e44ad" stroke="#000000" points="1295,-459.5 1193,-459.5 1193,-421.5 1295,-421.5 1295,-459.5"/>
<text text-anchor="middle" x="1244" y="-444.3" font-family="Times,serif" font-size="14.00" fill="#000000">MAT447</text>
<text text-anchor="middle" x="1244" y="-429.3" font-family="Times,serif" font-size="14.00" fill="#000000">Cryptography I</text>
</g>
<!-- CSE205&#45;&gt;MAT447 -->
<g id="edge50" class="edge">
<title>CSE205&#45;&gt;MAT447</title>
<path fill="none" stroke="#ecf0f1" d="M1414.4211,-502.9176C1379.4173,-490.0973 1337.9101,-474.8951 1304.6231,-462.7035"/>
<polygon fill="#ecf0f1" stroke="#ecf0f1" points="1305.6137,-459.339 1295.02,-459.1863 1303.2063,-465.9121 1305.6137,-459.339"/>
</g>
<!-- FSE100 -->
<g id="node15" class="node">
<title>FSE100</title>
<polygon fill="#c0392b" stroke="#000000" points="1779,-556 1607,-556 1607,-503 1779,-503 1779,-556"/>
<text text-anchor="middle" x="1693" y="-540.8" font-family="Times,serif" font-size="14.00" fill="#000000">FSE100</text>
<text text-anchor="middle" x="1693" y="-525.8" font-family="Times,serif" font-size="14.00" fill="#000000">Introduction to Engineering</text>
<text text-anchor="middle" x="1693" y="-510.8" font-family="Times,serif" font-size="14.00" fill="#000000">A</text>
</g>
<!-- FSE100&#45;&gt;CSE301 -->
<g id="edge44" class="edge">
<title>FSE100&#45;&gt;CSE301</title>
<path fill="none" stroke="#ecf0f1" d="M1689.0996,-502.7971C1687.5739,-492.3518 1685.8194,-480.3403 1684.2606,-469.6689"/>
<polygon fill="#ecf0f1" stroke="#ecf0f1" points="1687.6915,-468.9409 1682.7828,-459.5518 1680.765,-469.9527 1687.6915,-468.9409"/>
</g>
<!-- CSE120 -->
<g id="node17" class="node">
<title>CSE120</title>
<polygon fill="#d35400" stroke="#000000" points="2016.5,-467 1835.5,-467 1835.5,-414 2016.5,-414 2016.5,-467"/>
<text text-anchor="middle" x="1926" y="-451.8" font-family="Times,serif" font-size="14.00" fill="#000000">CSE120</text>
<text text-anchor="middle" x="1926" y="-436.8" font-family="Times,serif" font-size="14.00" fill="#000000">Digital Design Fundamentals</text>
<text text-anchor="middle" x="1926" y="-421.8" font-family="Times,serif" font-size="14.00" fill="#000000">A+</text>
</g>
<!-- CSE120&#45;&gt;CSE230 -->
<g id="edge19" class="edge">
<title>CSE120&#45;&gt;CSE230</title>
<path fill="none" stroke="#ecf0f1" d="M1920.8994,-413.7971C1919.3529,-405.7007 1917.6267,-396.6633 1915.9793,-388.0384"/>
<polygon fill="#ecf0f1" stroke="#ecf0f1" points="1919.4111,-387.3498 1914.097,-378.1841 1912.5354,-388.6632 1919.4111,-387.3498"/>
</g>
<!-- CSE310 -->
<g id="node23" class="node">
<title>CSE310</title>
<polygon fill="#f39c12" stroke="#000000" points="1420,-378 1226,-378 1226,-325 1420,-325 1420,-378"/>
<text text-anchor="middle" x="1323" y="-362.8" font-family="Times,serif" font-size="14.00" fill="#000000">CSE310</text>
<text text-anchor="middle" x="1323" y="-347.8" font-family="Times,serif" font-size="14.00" fill="#000000">Data Structures and Algorithms</text>
<text text-anchor="middle" x="1323" y="-332.8" font-family="Times,serif" font-size="14.00" fill="#000000">A+</text>
</g>
<!-- CSE240&#45;&gt;CSE310 -->
<g id="edge20" class="edge">
<title>CSE240&#45;&gt;CSE310</title>
<path fill="none" stroke="#ecf0f1" d="M1442.6944,-413.7971C1423.9255,-404.0285 1402.5245,-392.8899 1383.0591,-382.7588"/>
<polygon fill="#ecf0f1" stroke="#ecf0f1" points="1384.4609,-379.5428 1373.9746,-378.0306 1381.2292,-385.7521 1384.4609,-379.5428"/>
</g>
<!-- CSE365 -->
<g id="node26" class="node">
<title>CSE365</title>
<polygon fill="#16a085" stroke="#000000" points="1583.5,-378 1438.5,-378 1438.5,-325 1583.5,-325 1583.5,-378"/>
<text text-anchor="middle" x="1511" y="-362.8" font-family="Times,serif" font-size="14.00" fill="#000000">CSE365</text>
<text text-anchor="middle" x="1511" y="-347.8" font-family="Times,serif" font-size="14.00" fill="#000000">Information Assurance</text>
<text text-anchor="middle" x="1511" y="-332.8" font-family="Times,serif" font-size="14.00" fill="#000000">A+</text>
</g>
<!-- CSE240&#45;&gt;CSE365 -->
<g id="edge25" class="edge">
<title>CSE240&#45;&gt;CSE365</title>
<path fill="none" stroke="#ecf0f1" d="M1499.1006,-413.7971C1500.6471,-405.7007 1502.3733,-396.6633 1504.0207,-388.0384"/>
<polygon fill="#ecf0f1" stroke="#ecf0f1" points="1507.4646,-388.6632 1505.903,-378.1841 1500.5889,-387.3498 1507.4646,-388.6632"/>
</g>
<!-- CSE360 -->
<g id="node32" class="node">
<title>CSE360</title>
<polygon fill="#27ae60" stroke="#000000" points="1786,-370.5 1602,-370.5 1602,-332.5 1786,-332.5 1786,-370.5"/>
<text text-anchor="middle" x="1694" y="-355.3" font-family="Times,serif" font-size="14.00" fill="#000000">CSE360</text>
<text text-anchor="middle" x="1694" y="-340.3" font-family="Times,serif" font-size="14.00" fill="#000000">Intro to Software Engineering</text>
</g>
<!-- CSE240&#45;&gt;CSE360 -->
<g id="edge34" class="edge">
<title>CSE240&#45;&gt;CSE360</title>
<path fill="none" stroke="#ecf0f1" d="M1553.7357,-413.9176C1581.7419,-401.4548 1614.8064,-386.7412 1641.7967,-374.7305"/>
<polygon fill="#ecf0f1" stroke="#ecf0f1" points="1643.3587,-377.8663 1651.072,-370.603 1640.5127,-371.471 1643.3587,-377.8663"/>
</g>
<!-- MAT243&#45;&gt;CSE310 -->
<g id="edge21" class="edge">
<title>MAT243&#45;&gt;CSE310</title>
<path fill="none" stroke="#ecf0f1" d="M1306.7917,-591.9229C1310.018,-544.0667 1316.8107,-443.3082 1320.4953,-388.6529"/>
<polygon fill="#ecf0f1" stroke="#ecf0f1" points="1324.0082,-388.5787 1321.1888,-378.3659 1317.024,-388.1078 1324.0082,-388.5787"/>
</g>
<!-- PHY122 -->
<g id="node21" class="node">
<title>PHY122</title>
<polygon fill="#d35400" stroke="#000000" points="303,-467 179,-467 179,-414 303,-414 303,-467"/>
<text text-anchor="middle" x="241" y="-451.8" font-family="Times,serif" font-size="14.00" fill="#000000">PHY122</text>
<text text-anchor="middle" x="241" y="-436.8" font-family="Times,serif" font-size="14.00" fill="#000000">Univ Physics Lab I</text>
<text text-anchor="middle" x="241" y="-421.8" font-family="Times,serif" font-size="14.00" fill="#000000">A&#45;</text>
</g>
<!-- PHY121&#45;&gt;PHY122 -->
<g id="edge17" class="edge">
<title>PHY121&#45;&gt;PHY122</title>
<path fill="none" stroke="#ecf0f1" d="M347.4494,-502.7971C329.442,-493.1611 309.5162,-482.1921 291.7999,-472.1719"/>
<polygon fill="#ecf0f1" stroke="#ecf0f1" points="293.1816,-468.9314 282.7586,-467.0306 289.7213,-475.0163 293.1816,-468.9314"/>
</g>
<!-- PHY121&#45;&gt;PHY131 -->
<g id="edge27" class="edge">
<title>PHY121&#45;&gt;PHY131</title>
<path fill="none" stroke="#ecf0f1" d="M411.001,-502.7971C413.7598,-494.6127 416.8427,-485.4668 419.7784,-476.7573"/>
<polygon fill="#ecf0f1" stroke="#ecf0f1" points="423.1277,-477.7782 423.0054,-467.1841 416.4944,-475.5422 423.1277,-477.7782"/>
</g>
<!-- PHY122&#45;&gt;PHY121 -->
<g id="edge16" class="edge">
<title>PHY122&#45;&gt;PHY121</title>
<path fill="none" stroke="#ecf0f1" d="M295.2286,-467.0306C313.2129,-476.6506 333.1402,-487.6173 350.8828,-497.6486"/>
<polygon fill="#ecf0f1" stroke="#ecf0f1" points="349.5167,-500.898 359.94,-502.7971 352.976,-494.8125 349.5167,-500.898"/>
</g>
<!-- CSE340 -->
<g id="node25" class="node">
<title>CSE340</title>
<polygon fill="#16a085" stroke="#000000" points="1973,-289 1773,-289 1773,-236 1973,-236 1973,-289"/>
<text text-anchor="middle" x="1873" y="-273.8" font-family="Times,serif" font-size="14.00" fill="#000000">CSE340</text>
<text text-anchor="middle" x="1873" y="-258.8" font-family="Times,serif" font-size="14.00" fill="#000000">Principles of Programming Lang</text>
<text text-anchor="middle" x="1873" y="-243.8" font-family="Times,serif" font-size="14.00" fill="#000000">A</text>
</g>
<!-- CSE230&#45;&gt;CSE340 -->
<g id="edge24" class="edge">
<title>CSE230&#45;&gt;CSE340</title>
<path fill="none" stroke="#ecf0f1" d="M1898.1988,-324.7971C1894.8527,-316.5247 1891.1092,-307.27 1887.5523,-298.4765"/>
<polygon fill="#ecf0f1" stroke="#ecf0f1" points="1890.788,-297.142 1883.7936,-289.1841 1884.2988,-299.7669 1890.788,-297.142"/>
</g>
<!-- CSE330 -->
<g id="node39" class="node">
<title>CSE330</title>
<polygon fill="#2980b9" stroke="#000000" points="1754.5,-281.5 1631.5,-281.5 1631.5,-243.5 1754.5,-243.5 1754.5,-281.5"/>
<text text-anchor="middle" x="1693" y="-266.3" font-family="Times,serif" font-size="14.00" fill="#000000">CSE330</text>
<text text-anchor="middle" x="1693" y="-251.3" font-family="Times,serif" font-size="14.00" fill="#000000">Operating Systems</text>
</g>
<!-- CSE230&#45;&gt;CSE330 -->
<g id="edge42" class="edge">
<title>CSE230&#45;&gt;CSE330</title>
<path fill="none" stroke="#ecf0f1" d="M1844.4855,-324.9176C1813.9746,-312.346 1777.905,-297.484 1748.6173,-285.4164"/>
<polygon fill="#ecf0f1" stroke="#ecf0f1" points="1749.9416,-282.1766 1739.3623,-281.603 1747.2748,-288.6488 1749.9416,-282.1766"/>
</g>
<!-- CSE310&#45;&gt;CSE340 -->
<g id="edge23" class="edge">
<title>CSE310&#45;&gt;CSE340</title>
<path fill="none" stroke="#ecf0f1" d="M1420.2702,-326.8168C1423.5463,-326.175 1426.7963,-325.5667 1430,-325 1573.8632,-299.5527 1615.1588,-314.0356 1762.8458,-289.1015"/>
<polygon fill="#ecf0f1" stroke="#ecf0f1" points="1763.4679,-292.546 1772.7297,-287.4013 1762.2811,-285.6473 1763.4679,-292.546"/>
</g>
<!-- CSE355 -->
<g id="node34" class="node">
<title>CSE355</title>
<polygon fill="#27ae60" stroke="#000000" points="1206,-281.5 1014,-281.5 1014,-243.5 1206,-243.5 1206,-281.5"/>
<text text-anchor="middle" x="1110" y="-266.3" font-family="Times,serif" font-size="14.00" fill="#000000">CSE355</text>
<text text-anchor="middle" x="1110" y="-251.3" font-family="Times,serif" font-size="14.00" fill="#000000">Intro Theoretical Computer Sci</text>
</g>
<!-- CSE310&#45;&gt;CSE355 -->
<g id="edge36" class="edge">
<title>CSE310&#45;&gt;CSE355</title>
<path fill="none" stroke="#ecf0f1" d="M1259.3815,-324.9176C1229.4246,-312.4004 1194.0336,-297.6126 1165.2203,-285.5733"/>
<polygon fill="#ecf0f1" stroke="#ecf0f1" points="1166.2947,-282.229 1155.7184,-281.603 1163.5959,-288.6878 1166.2947,-282.229"/>
</g>
<!-- CSE450 -->
<g id="node37" class="node">
<title>CSE450</title>
<polygon fill="#2980b9" stroke="#000000" points="1422,-281.5 1224,-281.5 1224,-243.5 1422,-243.5 1422,-281.5"/>
<text text-anchor="middle" x="1323" y="-266.3" font-family="Times,serif" font-size="14.00" fill="#000000">CSE450</text>
<text text-anchor="middle" x="1323" y="-251.3" font-family="Times,serif" font-size="14.00" fill="#000000">Design&amp;Analysis of Algorithms</text>
</g>
<!-- CSE310&#45;&gt;CSE450 -->
<g id="edge40" class="edge">
<title>CSE310&#45;&gt;CSE450</title>
<path fill="none" stroke="#ecf0f1" d="M1323,-324.7971C1323,-314.3518 1323,-302.3403 1323,-291.6689"/>
<polygon fill="#ecf0f1" stroke="#ecf0f1" points="1326.5001,-291.5517 1323,-281.5518 1319.5001,-291.5518 1326.5001,-291.5517"/>
</g>
<!-- CSE412 -->
<g id="node38" class="node">
<title>CSE412</title>
<polygon fill="#2980b9" stroke="#000000" points="810,-281.5 666,-281.5 666,-243.5 810,-243.5 810,-281.5"/>
<text text-anchor="middle" x="738" y="-266.3" font-family="Times,serif" font-size="14.00" fill="#000000">CSE412</text>
<text text-anchor="middle" x="738" y="-251.3" font-family="Times,serif" font-size="14.00" fill="#000000">Database Management</text>
</g>
<!-- CSE310&#45;&gt;CSE412 -->
<g id="edge41" class="edge">
<title>CSE310&#45;&gt;CSE412</title>
<path fill="none" stroke="#ecf0f1" d="M1225.7944,-326.5791C1222.8355,-326.0193 1219.899,-325.4908 1217,-325 1042.3172,-295.4269 993.5837,-324.4591 820,-289 813.8435,-287.7424 807.4999,-286.1841 801.1964,-284.4577"/>
<polygon fill="#ecf0f1" stroke="#ecf0f1" points="801.9345,-281.0281 791.3565,-281.6255 799.9982,-287.755 801.9345,-281.0281"/>
</g>
<!-- CSE310&#45;&gt;CSE330 -->
<g id="edge43" class="edge">
<title>CSE310&#45;&gt;CSE330</title>
<path fill="none" stroke="#ecf0f1" d="M1420.0459,-327.2031C1423.4015,-326.4466 1426.727,-325.7099 1430,-325 1515.2744,-306.5038 1538.9778,-312.5393 1623,-289 1627.3403,-287.784 1631.7897,-286.411 1636.2387,-284.9459"/>
<polygon fill="#ecf0f1" stroke="#ecf0f1" points="1637.6142,-288.1743 1645.9357,-281.6165 1635.341,-281.5536 1637.6142,-288.1743"/>
</g>
<!-- CSE466 -->
<g id="node43" class="node">
<title>CSE466</title>
<polygon fill="#8e44ad" stroke="#000000" points="1613.5,-281.5 1440.5,-281.5 1440.5,-243.5 1613.5,-243.5 1613.5,-281.5"/>
<text text-anchor="middle" x="1527" y="-266.3" font-family="Times,serif" font-size="14.00" fill="#000000">CSE466</text>
<text text-anchor="middle" x="1527" y="-251.3" font-family="Times,serif" font-size="14.00" fill="#000000">Computer Systems Security</text>
</g>
<!-- CSE310&#45;&gt;CSE466 -->
<g id="edge53" class="edge">
<title>CSE310&#45;&gt;CSE466</title>
<path fill="none" stroke="#ecf0f1" d="M1383.9304,-324.9176C1412.4968,-312.4548 1446.2225,-297.7412 1473.7526,-285.7305"/>
<polygon fill="#ecf0f1" stroke="#ecf0f1" points="1475.4473,-288.8098 1483.2134,-281.603 1472.6481,-282.3938 1475.4473,-288.8098"/>
</g>
<!-- CSE471 -->
<g id="node45" class="node">
<title>CSE471</title>
<polygon fill="#7f8c8d" stroke="#000000" points="995.5,-281.5 828.5,-281.5 828.5,-243.5 995.5,-243.5 995.5,-281.5"/>
<text text-anchor="middle" x="912" y="-266.3" font-family="Times,serif" font-size="14.00" fill="#000000">CSE471</text>
<text text-anchor="middle" x="912" y="-251.3" font-family="Times,serif" font-size="14.00" fill="#000000">Intro Artificial Intelligence</text>
</g>
<!-- CSE310&#45;&gt;CSE471 -->
<g id="edge56" class="edge">
<title>CSE310&#45;&gt;CSE471</title>
<path fill="none" stroke="#ecf0f1" d="M1225.738,-326.8766C1222.7955,-326.2303 1219.8777,-325.6031 1217,-325 1123.4612,-305.3959 1098.2067,-310.1266 1005,-289 998.5096,-287.5288 991.7993,-285.8779 985.0928,-284.1381"/>
<polygon fill="#ecf0f1" stroke="#ecf0f1" points="985.8593,-280.7204 975.296,-281.5362 984.0625,-287.4859 985.8593,-280.7204"/>
</g>
<!-- MAT416 -->
<g id="node36" class="node">
<title>MAT416</title>
<polygon fill="#2980b9" stroke="#000000" points="1174.5,-459.5 1079.5,-459.5 1079.5,-421.5 1174.5,-421.5 1174.5,-459.5"/>
<text text-anchor="middle" x="1127" y="-444.3" font-family="Times,serif" font-size="14.00" fill="#000000">MAT416</text>
<text text-anchor="middle" x="1127" y="-429.3" font-family="Times,serif" font-size="14.00" fill="#000000">Graph Theory</text>
</g>
<!-- MAT343&#45;&gt;MAT416 -->
<g id="edge39" class="edge">
<title>MAT343&#45;&gt;MAT416</title>
<path fill="none" stroke="#ecf0f1" d="M1019.2051,-502.7971C1040.197,-490.6654 1064.8449,-476.4208 1085.2696,-464.6169"/>
<polygon fill="#ecf0f1" stroke="#ecf0f1" points="1087.1272,-467.5859 1094.034,-459.5518 1083.6246,-461.5252 1087.1272,-467.5859"/>
</g>
<!-- MAT343&#45;&gt;MAT447 -->
<g id="edge52" class="edge">
<title>MAT343&#45;&gt;MAT447</title>
<path fill="none" stroke="#ecf0f1" d="M1048.0722,-505.6964C1051.0854,-504.7791 1054.0701,-503.8772 1057,-503 1113.2034,-486.1727 1128.8097,-486.9 1184,-467 1187.1066,-465.8799 1190.2793,-464.6734 1193.4633,-463.4147"/>
<polygon fill="#ecf0f1" stroke="#ecf0f1" points="1195.0643,-466.5413 1202.9942,-459.5151 1192.4135,-460.0626 1195.0643,-466.5413"/>
</g>
<!-- CSE477 -->
<g id="node44" class="node">
<title>CSE477</title>
<polygon fill="#8e44ad" stroke="#000000" points="909,-459.5 697,-459.5 697,-421.5 909,-421.5 909,-459.5"/>
<text text-anchor="middle" x="803" y="-444.3" font-family="Times,serif" font-size="14.00" fill="#000000">CSE477</text>
<text text-anchor="middle" x="803" y="-429.3" font-family="Times,serif" font-size="14.00" fill="#000000">Intro Computer&#45;Aided Geom Desg</text>
</g>
<!-- MAT343&#45;&gt;CSE477 -->
<g id="edge55" class="edge">
<title>MAT343&#45;&gt;CSE477</title>
<path fill="none" stroke="#ecf0f1" d="M921.9944,-502.7971C898.6136,-490.5565 871.1244,-476.1651 848.4606,-464.2999"/>
<polygon fill="#ecf0f1" stroke="#ecf0f1" points="849.8737,-461.0892 839.391,-459.5518 846.627,-467.2907 849.8737,-461.0892"/>
</g>
<!-- STP425 -->
<g id="node48" class="node">
<title>STP425</title>
<polygon fill="#7f8c8d" stroke="#000000" points="735,-370.5 603,-370.5 603,-332.5 735,-332.5 735,-370.5"/>
<text text-anchor="middle" x="669" y="-355.3" font-family="Times,serif" font-size="14.00" fill="#000000">STP425</text>
<text text-anchor="middle" x="669" y="-340.3" font-family="Times,serif" font-size="14.00" fill="#000000">Stochastic Processes</text>
</g>
<!-- MAT343&#45;&gt;STP425 -->
<g id="edge59" class="edge">
<title>MAT343&#45;&gt;STP425</title>
<path fill="none" stroke="#ecf0f1" d="M897.5733,-505.2022C894.6863,-504.4321 891.8212,-503.6946 889,-503 800.8769,-481.3031 751.7167,-531.6269 688,-467 665.9303,-444.6151 663.5946,-407.1114 665.2023,-380.933"/>
<polygon fill="#ecf0f1" stroke="#ecf0f1" points="668.7019,-381.0843 666.0502,-370.8267 661.7264,-380.4991 668.7019,-381.0843"/>
</g>
<!-- CSE485 -->
<g id="node41" class="node">
<title>CSE485</title>
<polygon fill="#8e44ad" stroke="#000000" points="1875,-200 1691,-200 1691,-162 1875,-162 1875,-200"/>
<text text-anchor="middle" x="1783" y="-184.8" font-family="Times,serif" font-size="14.00" fill="#000000">CSE485</text>
<text text-anchor="middle" x="1783" y="-169.8" font-family="Times,serif" font-size="14.00" fill="#000000">Computer Sci Capstone Proj I</text>
</g>
<!-- CSE340&#45;&gt;CSE485 -->
<g id="edge47" class="edge">
<title>CSE340&#45;&gt;CSE485</title>
<path fill="none" stroke="#ecf0f1" d="M1843.5306,-235.8139C1833.3176,-226.5654 1821.8882,-216.2154 1811.7351,-207.0212"/>
<polygon fill="#ecf0f1" stroke="#ecf0f1" points="1814.0228,-204.3711 1804.2611,-200.2531 1809.3242,-209.5598 1814.0228,-204.3711"/>
</g>
<!-- CSE365&#45;&gt;CSE466 -->
<g id="edge54" class="edge">
<title>CSE365&#45;&gt;CSE466</title>
<path fill="none" stroke="#ecf0f1" d="M1515.8005,-324.7971C1517.6783,-314.3518 1519.8377,-302.3403 1521.7562,-291.6689"/>
<polygon fill="#ecf0f1" stroke="#ecf0f1" points="1525.2503,-292.0133 1523.575,-281.5518 1518.3607,-290.7747 1525.2503,-292.0133"/>
</g>
<!-- MAT300&#45;&gt;MAT371 -->
<g id="edge33" class="edge">
<title>MAT300&#45;&gt;MAT371</title>
<path fill="none" stroke="#ecf0f1" d="M1098.2951,-502.7971C1078.0758,-490.7198 1054.3508,-476.5485 1034.6416,-464.7759"/>
<polygon fill="#ecf0f1" stroke="#ecf0f1" points="1036.2756,-461.675 1025.8957,-459.5518 1032.6859,-467.6846 1036.2756,-461.675"/>
</g>
<!-- MAT300&#45;&gt;MAT416 -->
<g id="edge38" class="edge">
<title>MAT300&#45;&gt;MAT416</title>
<path fill="none" stroke="#ecf0f1" d="M1138.1995,-502.7971C1136.3217,-492.3518 1134.1623,-480.3403 1132.2438,-469.6689"/>
<polygon fill="#ecf0f1" stroke="#ecf0f1" points="1135.6393,-468.7747 1130.425,-459.5518 1128.7497,-470.0133 1135.6393,-468.7747"/>
</g>
<!-- MAT300&#45;&gt;MAT447 -->
<g id="edge51" class="edge">
<title>MAT300&#45;&gt;MAT447</title>
<path fill="none" stroke="#ecf0f1" d="M1173.3033,-502.7971C1186.3917,-491.2638 1201.647,-477.8209 1214.6295,-466.381"/>
<polygon fill="#ecf0f1" stroke="#ecf0f1" points="1217.1907,-468.7891 1222.3794,-459.5518 1212.5627,-463.5371 1217.1907,-468.7891"/>
</g>
<!-- PHY132 -->
<g id="node29" class="node">
<title>PHY132</title>
<polygon fill="#16a085" stroke="#000000" points="512,-378 352,-378 352,-325 512,-325 512,-378"/>
<text text-anchor="middle" x="432" y="-362.8" font-family="Times,serif" font-size="14.00" fill="#000000">PHY132</text>
<text text-anchor="middle" x="432" y="-347.8" font-family="Times,serif" font-size="14.00" fill="#000000">University Physics Lab II</text>
<text text-anchor="middle" x="432" y="-332.8" font-family="Times,serif" font-size="14.00" fill="#000000">A&#45;</text>
</g>
<!-- PHY131&#45;&gt;PHY132 -->
<g id="edge30" class="edge">
<title>PHY131&#45;&gt;PHY132</title>
<path fill="none" stroke="#ecf0f1" d="M425.7547,-413.7971C425.276,-405.7887 425.1378,-396.8597 425.3402,-388.3198"/>
<polygon fill="#ecf0f1" stroke="#ecf0f1" points="428.843,-388.3191 425.7558,-378.1841 421.8489,-388.0322 428.843,-388.3191"/>
</g>
<!-- PHY132&#45;&gt;PHY131 -->
<g id="edge29" class="edge">
<title>PHY132&#45;&gt;PHY131</title>
<path fill="none" stroke="#ecf0f1" d="M438.2442,-378.1841C438.7234,-386.191 438.8621,-395.1196 438.6603,-403.6601"/>
<polygon fill="#ecf0f1" stroke="#ecf0f1" points="435.1574,-403.6622 438.2453,-413.7971 442.1515,-403.9486 435.1574,-403.6622"/>
</g>
<!-- MAT371&#45;&gt;STP425 -->
<g id="edge60" class="edge">
<title>MAT371&#45;&gt;STP425</title>
<path fill="none" stroke="#ecf0f1" d="M941.4583,-421.4949C933.6311,-418.8631 925.6307,-416.283 918,-414 860.575,-396.8191 794.767,-380.4412 745.2315,-368.7641"/>
<polygon fill="#ecf0f1" stroke="#ecf0f1" points="745.7683,-365.2951 735.2332,-366.4189 744.1697,-372.1101 745.7683,-365.2951"/>
</g>
<!-- CSE360&#45;&gt;CSE485 -->
<g id="edge49" class="edge">
<title>CSE360&#45;&gt;CSE485</title>
<path fill="none" stroke="#ecf0f1" d="M1764.9192,-332.4621C1775.3177,-329.8491 1785.9179,-327.283 1796,-325 1878.1217,-306.4044 1928.4157,-353.9499 1982,-289 1996.9905,-270.83 1996.2662,-254.744 1982,-236 1969.3875,-219.4287 1927.2254,-206.5695 1884.9374,-197.4665"/>
<polygon fill="#ecf0f1" stroke="#ecf0f1" points="1885.571,-194.0234 1875.067,-195.4077 1884.1416,-200.876 1885.571,-194.0234"/>
</g>
<!-- CSE355&#45;&gt;CSE485 -->
<g id="edge48" class="edge">
<title>CSE355&#45;&gt;CSE485</title>
<path fill="none" stroke="#ecf0f1" d="M1179.154,-243.4789C1191.0449,-240.6594 1203.33,-238.0258 1215,-236 1376.5536,-207.9564 1566.6224,-193.1852 1680.812,-186.2464"/>
<polygon fill="#ecf0f1" stroke="#ecf0f1" points="1681.1682,-189.7314 1690.9409,-185.6394 1680.7494,-182.744 1681.1682,-189.7314"/>
</g>
<!-- STP421&#45;&gt;STP425 -->
<g id="edge61" class="edge">
<title>STP421&#45;&gt;STP425</title>
<path fill="none" stroke="#ecf0f1" d="M615.755,-421.1883C625.2005,-408.8258 637.6007,-392.5962 648.0577,-378.9098"/>
<polygon fill="#ecf0f1" stroke="#ecf0f1" points="650.9837,-380.845 654.2738,-370.774 645.4214,-376.5952 650.9837,-380.845"/>
</g>
<!-- CSE330&#45;&gt;CSE485 -->
<g id="edge46" class="edge">
<title>CSE330&#45;&gt;CSE485</title>
<path fill="none" stroke="#ecf0f1" d="M1714.3287,-243.1856C1726.2096,-232.4268 1741.168,-218.8812 1754.0886,-207.1809"/>
<polygon fill="#ecf0f1" stroke="#ecf0f1" points="1756.7612,-209.4825 1761.8244,-200.1757 1752.0626,-204.2938 1756.7612,-209.4825"/>
</g>
<!-- CSE486 -->
<g id="node46" class="node">
<title>CSE486</title>
<polygon fill="#7f8c8d" stroke="#000000" points="1877.5,-126 1688.5,-126 1688.5,-88 1877.5,-88 1877.5,-126"/>
<text text-anchor="middle" x="1783" y="-110.8" font-family="Times,serif" font-size="14.00" fill="#000000">CSE486</text>
<text text-anchor="middle" x="1783" y="-95.8" font-family="Times,serif" font-size="14.00" fill="#000000">Computer Sci Capstone Proj II</text>
</g>
<!-- CSE485&#45;&gt;CSE486 -->
<g id="edge57" class="edge">
<title>CSE485&#45;&gt;CSE486</title>
<path fill="none" stroke="#ecf0f1" d="M1783,-161.9432C1783,-154.1493 1783,-144.9538 1783,-136.3381"/>
<polygon fill="#ecf0f1" stroke="#ecf0f1" points="1786.5001,-136.2494 1783,-126.2495 1779.5001,-136.2495 1786.5001,-136.2494"/>
</g>
<!-- MAT448 -->
<g id="node47" class="node">
<title>MAT448</title>
<polygon fill="#7f8c8d" stroke="#000000" points="1207.5,-370.5 1100.5,-370.5 1100.5,-332.5 1207.5,-332.5 1207.5,-370.5"/>
<text text-anchor="middle" x="1154" y="-355.3" font-family="Times,serif" font-size="14.00" fill="#000000">MAT448</text>
<text text-anchor="middle" x="1154" y="-340.3" font-family="Times,serif" font-size="14.00" fill="#000000">Cryptography II</text>
</g>
<!-- MAT447&#45;&gt;MAT448 -->
<g id="edge58" class="edge">
<title>MAT447&#45;&gt;MAT448</title>
<path fill="none" stroke="#ecf0f1" d="M1224.4713,-421.1883C1211.7341,-408.5926 1194.9372,-391.9824 1180.9371,-378.1378"/>
<polygon fill="#ecf0f1" stroke="#ecf0f1" points="1183.0621,-375.3168 1173.4905,-370.774 1178.14,-380.2941 1183.0621,-375.3168"/>
</g>
</g>
</svg>
