<?xml version="1.0" encoding="UTF-8" standalone="no"?>
<!DOCTYPE svg PUBLIC "-//W3C//DTD SVG 1.1//EN"
 "http://www.w3.org/Graphics/SVG/1.1/DTD/svg11.dtd">
<!-- Generated by graphviz version 2.40.1 (20161225.0304)
 -->
<!-- Title: %3 Pages: 1 -->
<svg width="2157pt" height="773pt"
 viewBox="0.00 0.00 2157.00 772.50" xmlns="http://www.w3.org/2000/svg" xmlns:xlink="http://www.w3.org/1999/xlink">
<g id="graph0" class="graph" transform="scale(1 1) rotate(0) translate(4 768.5)">
<title>%3</title>
<polygon fill="#000000" stroke="transparent" points="-4,4 -4,-768.5 2153,-768.5 2153,4 -4,4"/>
<g id="clust1" class="cluster">
<title>cluster</title>
<polygon fill="#2c3e50" stroke="#000000" points="8,-8 8,-756.5 112,-756.5 112,-8 8,-8"/>
<text text-anchor="middle" x="60" y="-741.3" font-family="Sans-Serif" font-size="14.00" fill="#ecf0f1">Semester Key</text>
</g>
<!-- 0 -->
<g id="node1" class="node">
<title>0</title>
<polygon fill="#bdc3c7" stroke="#bdc3c7" points="86,-725.5 32,-725.5 32,-689.5 86,-689.5 86,-725.5"/>
<text text-anchor="middle" x="59" y="-703.8" font-family="Sans-Serif" font-size="14.00" fill="#000000">0</text>
</g>
<!-- 1 -->
<g id="node2" class="node">
<title>1</title>
<polygon fill="#c0392b" stroke="#c0392b" points="86,-636.5 32,-636.5 32,-600.5 86,-600.5 86,-636.5"/>
<text text-anchor="middle" x="59" y="-614.8" font-family="Sans-Serif" font-size="14.00" fill="#000000">1</text>
</g>
<!-- 0&#45;&gt;1 -->
<g id="edge1" class="edge">
<title>0&#45;&gt;1</title>
<path fill="none" stroke="#ecf0f1" d="M59,-689.4895C59,-677.2658 59,-660.8495 59,-646.8824"/>
<polygon fill="#ecf0f1" stroke="#ecf0f1" points="62.5001,-646.7891 59,-636.7892 55.5001,-646.7892 62.5001,-646.7891"/>
</g>
<!-- 2 -->
<g id="node3" class="node">
<title>2</title>
<polygon fill="#d35400" stroke="#d35400" points="86,-547.5 32,-547.5 32,-511.5 86,-511.5 86,-547.5"/>
<text text-anchor="middle" x="59" y="-525.8" font-family="Sans-Serif" font-size="14.00" fill="#000000">2</text>
</g>
<!-- 1&#45;&gt;2 -->
<g id="edge2" class="edge">
<title>1&#45;&gt;2</title>
<path fill="none" stroke="#ecf0f1" d="M59,-600.4895C59,-588.2658 59,-571.8495 59,-557.8824"/>
<polygon fill="#ecf0f1" stroke="#ecf0f1" points="62.5001,-557.7891 59,-547.7892 55.5001,-557.7892 62.5001,-557.7891"/>
</g>
<!-- 3 -->
<g id="node4" class="node">
<title>3</title>
<polygon fill="#f39c12" stroke="#f39c12" points="86,-458.5 32,-458.5 32,-422.5 86,-422.5 86,-458.5"/>
<text text-anchor="middle" x="59" y="-436.8" font-family="Sans-Serif" font-size="14.00" fill="#000000">3</text>
</g>
<!-- 2&#45;&gt;3 -->
<g id="edge3" class="edge">
<title>2&#45;&gt;3</title>
<path fill="none" stroke="#ecf0f1" d="M59,-511.4895C59,-499.2658 59,-482.8495 59,-468.8824"/>
<polygon fill="#ecf0f1" stroke="#ecf0f1" points="62.5001,-468.7891 59,-458.7892 55.5001,-468.7892 62.5001,-468.7891"/>
</g>
<!-- 4 -->
<g id="node5" class="node">
<title>4</title>
<polygon fill="#16a085" stroke="#16a085" points="86,-369.5 32,-369.5 32,-333.5 86,-333.5 86,-369.5"/>
<text text-anchor="middle" x="59" y="-347.8" font-family="Sans-Serif" font-size="14.00" fill="#000000">4</text>
</g>
<!-- 3&#45;&gt;4 -->
<g id="edge4" class="edge">
<title>3&#45;&gt;4</title>
<path fill="none" stroke="#ecf0f1" d="M59,-422.4895C59,-410.2658 59,-393.8495 59,-379.8824"/>
<polygon fill="#ecf0f1" stroke="#ecf0f1" points="62.5001,-379.7891 59,-369.7892 55.5001,-379.7892 62.5001,-379.7891"/>
</g>
<!-- 5 -->
<g id="node6" class="node">
<title>5</title>
<polygon fill="#27ae60" stroke="#27ae60" points="86,-280.5 32,-280.5 32,-244.5 86,-244.5 86,-280.5"/>
<text text-anchor="middle" x="59" y="-258.8" font-family="Sans-Serif" font-size="14.00" fill="#000000">5</text>
</g>
<!-- 4&#45;&gt;5 -->
<g id="edge5" class="edge">
<title>4&#45;&gt;5</title>
<path fill="none" stroke="#ecf0f1" d="M59,-333.4895C59,-321.2658 59,-304.8495 59,-290.8824"/>
<polygon fill="#ecf0f1" stroke="#ecf0f1" points="62.5001,-290.7891 59,-280.7892 55.5001,-290.7892 62.5001,-290.7891"/>
</g>
<!-- 6 -->
<g id="node7" class="node">
<title>6</title>
<polygon fill="#2980b9" stroke="#2980b9" points="86,-199 32,-199 32,-163 86,-163 86,-199"/>
<text text-anchor="middle" x="59" y="-177.3" font-family="Sans-Serif" font-size="14.00" fill="#000000">6</text>
</g>
<!-- 5&#45;&gt;6 -->
<g id="edge6" class="edge">
<title>5&#45;&gt;6</title>
<path fill="none" stroke="#ecf0f1" d="M59,-244.4125C59,-234.072 59,-220.8769 59,-209.2037"/>
<polygon fill="#ecf0f1" stroke="#ecf0f1" points="62.5001,-209.0369 59,-199.0369 55.5001,-209.037 62.5001,-209.0369"/>
</g>
<!-- 7 -->
<g id="node8" class="node">
<title>7</title>
<polygon fill="#8e44ad" stroke="#8e44ad" points="86,-125 32,-125 32,-89 86,-89 86,-125"/>
<text text-anchor="middle" x="59" y="-103.3" font-family="Sans-Serif" font-size="14.00" fill="#000000">7</text>
</g>
<!-- 6&#45;&gt;7 -->
<g id="edge7" class="edge">
<title>6&#45;&gt;7</title>
<path fill="none" stroke="#ecf0f1" d="M59,-162.7079C59,-154.4635 59,-144.5376 59,-135.3622"/>
<polygon fill="#ecf0f1" stroke="#ecf0f1" points="62.5001,-135.0817 59,-125.0817 55.5001,-135.0818 62.5001,-135.0817"/>
</g>
<!-- 8 -->
<g id="node9" class="node">
<title>8</title>
<polygon fill="#7f8c8d" stroke="#7f8c8d" points="86,-52 32,-52 32,-16 86,-16 86,-52"/>
<text text-anchor="middle" x="59" y="-30.3" font-family="Sans-Serif" font-size="14.00" fill="#000000">8</text>
</g>
<!-- 7&#45;&gt;8 -->
<g id="edge8" class="edge">
<title>7&#45;&gt;8</title>
<path fill="none" stroke="#ecf0f1" d="M59,-88.9551C59,-80.8828 59,-71.1764 59,-62.1817"/>
<polygon fill="#ecf0f1" stroke="#ecf0f1" points="62.5001,-62.0903 59,-52.0904 55.5001,-62.0904 62.5001,-62.0903"/>
</g>
<!-- MAT270 -->
<g id="node10" class="node">
<title>MAT270</title>
<polygon fill="#bdc3c7" stroke="#000000" points="1275,-734 1061,-734 1061,-681 1275,-681 1275,-734"/>
<text text-anchor="middle" x="1168" y="-718.8" font-family="Sans-Serif" font-size="14.00" fill="#000000">MAT270</text>
<text text-anchor="middle" x="1168" y="-703.8" font-family="Sans-Serif" font-size="14.00" fill="#000000">Calculus w/ Analytic Geometry I</text>
<text text-anchor="middle" x="1168" y="-688.8" font-family="Sans-Serif" font-size="14.00" fill="#000000">AP</text>
</g>
<!-- MAT271 -->
<g id="node11" class="node">
<title>MAT271</title>
<polygon fill="#bdc3c7" stroke="#000000" points="838,-645 620,-645 620,-592 838,-592 838,-645"/>
<text text-anchor="middle" x="729" y="-629.8" font-family="Sans-Serif" font-size="14.00" fill="#000000">MAT271</text>
<text text-anchor="middle" x="729" y="-614.8" font-family="Sans-Serif" font-size="14.00" fill="#000000">Calculus w/ Analytic Geometry II</text>
<text text-anchor="middle" x="729" y="-599.8" font-family="Sans-Serif" font-size="14.00" fill="#000000">AP</text>
</g>
<!-- MAT270&#45;&gt;MAT271 -->
<g id="edge9" class="edge">
<title>MAT270&#45;&gt;MAT271</title>
<path fill="none" stroke="#ecf0f1" d="M1060.8893,-685.7851C996.5493,-672.7412 914.5663,-656.1205 848.1809,-642.662"/>
<polygon fill="#ecf0f1" stroke="#ecf0f1" points="848.5811,-639.172 838.085,-640.6152 847.1902,-646.0324 848.5811,-639.172"/>
</g>
<!-- MAT243 -->
<g id="node19" class="node">
<title>MAT243</title>
<polygon fill="#d35400" stroke="#000000" points="1474.5,-645 1303.5,-645 1303.5,-592 1474.5,-592 1474.5,-645"/>
<text text-anchor="middle" x="1389" y="-629.8" font-family="Sans-Serif" font-size="14.00" fill="#000000">MAT243</text>
<text text-anchor="middle" x="1389" y="-614.8" font-family="Sans-Serif" font-size="14.00" fill="#000000">Discrete Math Structures</text>
<text text-anchor="middle" x="1389" y="-599.8" font-family="Sans-Serif" font-size="14.00" fill="#000000">A+</text>
</g>
<!-- MAT270&#45;&gt;MAT243 -->
<g id="edge14" class="edge">
<title>MAT270&#45;&gt;MAT243</title>
<path fill="none" stroke="#ecf0f1" d="M1234.0079,-680.9176C1259.0425,-670.8358 1287.7347,-659.2811 1313.5726,-648.8758"/>
<polygon fill="#ecf0f1" stroke="#ecf0f1" points="1314.982,-652.0814 1322.9506,-645.0991 1312.367,-645.5881 1314.982,-652.0814"/>
</g>
<!-- MAT300 -->
<g id="node27" class="node">
<title>MAT300</title>
<polygon fill="#16a085" stroke="#000000" points="1301.5,-556 1134.5,-556 1134.5,-503 1301.5,-503 1301.5,-556"/>
<text text-anchor="middle" x="1218" y="-540.8" font-family="Sans-Serif" font-size="14.00" fill="#000000">MAT300</text>
<text text-anchor="middle" x="1218" y="-525.8" font-family="Sans-Serif" font-size="14.00" fill="#000000">Mathematical Structures</text>
<text text-anchor="middle" x="1218" y="-510.8" font-family="Sans-Serif" font-size="14.00" fill="#000000">B</text>
</g>
<!-- MAT270&#45;&gt;MAT300 -->
<g id="edge26" class="edge">
<title>MAT270&#45;&gt;MAT300</title>
<path fill="none" stroke="#ecf0f1" d="M1183.4008,-680.8589C1189.0704,-670.0358 1195.0621,-657.22 1199,-645 1207.2699,-619.337 1212.0712,-589.2503 1214.7779,-566.2188"/>
<polygon fill="#ecf0f1" stroke="#ecf0f1" points="1218.2684,-566.4963 1215.8791,-556.1744 1211.3101,-565.7334 1218.2684,-566.4963"/>
</g>
<!-- CHM113 -->
<g id="node33" class="node">
<title>CHM113</title>
<polygon fill="#27ae60" stroke="#000000" points="1189.5,-637.5 1048.5,-637.5 1048.5,-599.5 1189.5,-599.5 1189.5,-637.5"/>
<text text-anchor="middle" x="1119" y="-622.3" font-family="Sans-Serif" font-size="14.00" fill="#000000">CHM113</text>
<text text-anchor="middle" x="1119" y="-607.3" font-family="Sans-Serif" font-size="14.00" fill="#000000">General Chemistry I</text>
</g>
<!-- MAT270&#45;&gt;CHM113 -->
<g id="edge35" class="edge">
<title>MAT270&#45;&gt;CHM113</title>
<path fill="none" stroke="#ecf0f1" d="M1153.2984,-680.7971C1147.308,-669.9166 1140.382,-657.3366 1134.3288,-646.3421"/>
<polygon fill="#ecf0f1" stroke="#ecf0f1" points="1137.3782,-644.6238 1129.4892,-637.5518 1131.2462,-647.9999 1137.3782,-644.6238"/>
</g>
<!-- MAT267 -->
<g id="node12" class="node">
<title>MAT267</title>
<polygon fill="#bdc3c7" stroke="#000000" points="709.5,-556 536.5,-556 536.5,-503 709.5,-503 709.5,-556"/>
<text text-anchor="middle" x="623" y="-540.8" font-family="Sans-Serif" font-size="14.00" fill="#000000">MAT267</text>
<text text-anchor="middle" x="623" y="-525.8" font-family="Sans-Serif" font-size="14.00" fill="#000000">Calculus for Engineers III</text>
<text text-anchor="middle" x="623" y="-510.8" font-family="Sans-Serif" font-size="14.00" fill="#000000">TC</text>
</g>
<!-- MAT271&#45;&gt;MAT267 -->
<g id="edge10" class="edge">
<title>MAT271&#45;&gt;MAT267</title>
<path fill="none" stroke="#ecf0f1" d="M697.1965,-591.7971C686.2959,-582.6447 673.9631,-572.2898 662.5267,-562.6875"/>
<polygon fill="#ecf0f1" stroke="#ecf0f1" points="664.6901,-559.9339 654.781,-556.1841 660.189,-565.2948 664.6901,-559.9339"/>
</g>
<!-- IEE380 -->
<g id="node16" class="node">
<title>IEE380</title>
<polygon fill="#c0392b" stroke="#000000" points="940,-556 728,-556 728,-503 940,-503 940,-556"/>
<text text-anchor="middle" x="834" y="-540.8" font-family="Sans-Serif" font-size="14.00" fill="#000000">IEE380</text>
<text text-anchor="middle" x="834" y="-525.8" font-family="Sans-Serif" font-size="14.00" fill="#000000">Prob &amp; Stats Engr Prob Solving</text>
<text text-anchor="middle" x="834" y="-510.8" font-family="Sans-Serif" font-size="14.00" fill="#000000">A</text>
</g>
<!-- MAT271&#45;&gt;IEE380 -->
<g id="edge12" class="edge">
<title>MAT271&#45;&gt;IEE380</title>
<path fill="none" stroke="#ecf0f1" d="M760.5035,-591.7971C771.3012,-582.6447 783.5177,-572.2898 794.8462,-562.6875"/>
<polygon fill="#ecf0f1" stroke="#ecf0f1" points="797.1535,-565.32 802.5188,-556.1841 792.6273,-559.9801 797.1535,-565.32"/>
</g>
<!-- PHY121 -->
<g id="node20" class="node">
<title>PHY121</title>
<polygon fill="#d35400" stroke="#000000" points="518.5,-556 339.5,-556 339.5,-503 518.5,-503 518.5,-556"/>
<text text-anchor="middle" x="429" y="-540.8" font-family="Sans-Serif" font-size="14.00" fill="#000000">PHY121</text>
<text text-anchor="middle" x="429" y="-525.8" font-family="Sans-Serif" font-size="14.00" fill="#000000">Univ Physics I: Mechanics</text>
<text text-anchor="middle" x="429" y="-510.8" font-family="Sans-Serif" font-size="14.00" fill="#000000">A+</text>
</g>
<!-- MAT271&#45;&gt;PHY121 -->
<g id="edge15" class="edge">
<title>MAT271&#45;&gt;PHY121</title>
<path fill="none" stroke="#ecf0f1" d="M639.3965,-591.9176C604.4397,-581.5471 564.2293,-569.618 528.3866,-558.9847"/>
<polygon fill="#ecf0f1" stroke="#ecf0f1" points="528.9834,-555.511 518.4009,-556.0223 526.9925,-562.2219 528.9834,-555.511"/>
</g>
<!-- MAT343 -->
<g id="node24" class="node">
<title>MAT343</title>
<polygon fill="#f39c12" stroke="#000000" points="1116,-556 958,-556 958,-503 1116,-503 1116,-556"/>
<text text-anchor="middle" x="1037" y="-540.8" font-family="Sans-Serif" font-size="14.00" fill="#000000">MAT343</text>
<text text-anchor="middle" x="1037" y="-525.8" font-family="Sans-Serif" font-size="14.00" fill="#000000">Applied Linear Algebra</text>
<text text-anchor="middle" x="1037" y="-510.8" font-family="Sans-Serif" font-size="14.00" fill="#000000">A+</text>
</g>
<!-- MAT271&#45;&gt;MAT343 -->
<g id="edge22" class="edge">
<title>MAT271&#45;&gt;MAT343</title>
<path fill="none" stroke="#ecf0f1" d="M823.5748,-591.9834C859.8855,-581.7175 901.9285,-569.7286 947.9769,-556.2854"/>
<polygon fill="#ecf0f1" stroke="#ecf0f1" points="949.2474,-559.5606 957.8633,-553.3948 947.2829,-552.8419 949.2474,-559.5606"/>
</g>
<!-- MAT275 -->
<g id="node30" class="node">
<title>MAT275</title>
<polygon fill="#27ae60" stroke="#000000" points="321.5,-548.5 120.5,-548.5 120.5,-510.5 321.5,-510.5 321.5,-548.5"/>
<text text-anchor="middle" x="221" y="-533.3" font-family="Sans-Serif" font-size="14.00" fill="#000000">MAT275</text>
<text text-anchor="middle" x="221" y="-518.3" font-family="Sans-Serif" font-size="14.00" fill="#000000">Modern Differential Equations</text>
</g>
<!-- MAT271&#45;&gt;MAT275 -->
<g id="edge31" class="edge">
<title>MAT271&#45;&gt;MAT275</title>
<path fill="none" stroke="#ecf0f1" d="M619.7614,-603.886C539.3292,-592.5201 427.4676,-575.4469 330,-556 322.057,-554.4152 313.818,-552.6459 305.5887,-550.7939"/>
<polygon fill="#ecf0f1" stroke="#ecf0f1" points="306.1053,-547.3217 295.5763,-548.5007 304.5425,-554.145 306.1053,-547.3217"/>
</g>
<!-- PHY131 -->
<g id="node28" class="node">
<title>PHY131</title>
<polygon fill="#16a085" stroke="#000000" points="581.5,-467 346.5,-467 346.5,-414 581.5,-414 581.5,-467"/>
<text text-anchor="middle" x="464" y="-451.8" font-family="Sans-Serif" font-size="14.00" fill="#000000">PHY131</text>
<text text-anchor="middle" x="464" y="-436.8" font-family="Sans-Serif" font-size="14.00" fill="#000000">University Physics II: Elctrc/Magnet</text>
<text text-anchor="middle" x="464" y="-421.8" font-family="Sans-Serif" font-size="14.00" fill="#000000">A</text>
</g>
<!-- MAT267&#45;&gt;PHY131 -->
<g id="edge28" class="edge">
<title>MAT267&#45;&gt;PHY131</title>
<path fill="none" stroke="#ecf0f1" d="M575.2948,-502.7971C558.0799,-493.1611 538.4836,-482.1921 520.5825,-472.1719"/>
<polygon fill="#ecf0f1" stroke="#ecf0f1" points="521.833,-468.8609 511.3974,-467.0306 518.4139,-474.9691 521.833,-468.8609"/>
</g>
<!-- MAT371 -->
<g id="node31" class="node">
<title>MAT371</title>
<polygon fill="#27ae60" stroke="#000000" points="1130,-459.5 986,-459.5 986,-421.5 1130,-421.5 1130,-459.5"/>
<text text-anchor="middle" x="1058" y="-444.3" font-family="Sans-Serif" font-size="14.00" fill="#000000">MAT371</text>
<text text-anchor="middle" x="1058" y="-429.3" font-family="Sans-Serif" font-size="14.00" fill="#000000">Advanced Calculus I</text>
</g>
<!-- MAT267&#45;&gt;MAT371 -->
<g id="edge32" class="edge">
<title>MAT267&#45;&gt;MAT371</title>
<path fill="none" stroke="#ecf0f1" d="M709.7404,-505.0094C712.8586,-504.3033 715.9523,-503.6305 719,-503 832.3771,-479.5463 864.2034,-493.1029 977,-467 982.7255,-465.675 988.6241,-464.1233 994.5044,-462.4471"/>
<polygon fill="#ecf0f1" stroke="#ecf0f1" points="995.7577,-465.7261 1004.3494,-459.5266 993.7669,-459.0152 995.7577,-465.7261"/>
</g>
<!-- STP421 -->
<g id="node35" class="node">
<title>STP421</title>
<polygon fill="#2980b9" stroke="#000000" points="682,-459.5 600,-459.5 600,-421.5 682,-421.5 682,-459.5"/>
<text text-anchor="middle" x="641" y="-444.3" font-family="Sans-Serif" font-size="14.00" fill="#000000">STP421</text>
<text text-anchor="middle" x="641" y="-429.3" font-family="Sans-Serif" font-size="14.00" fill="#000000">Probability</text>
</g>
<!-- MAT267&#45;&gt;STP421 -->
<g id="edge37" class="edge">
<title>MAT267&#45;&gt;STP421</title>
<path fill="none" stroke="#ecf0f1" d="M628.4006,-502.7971C630.5131,-492.3518 632.9424,-480.3403 635.1007,-469.6689"/>
<polygon fill="#ecf0f1" stroke="#ecf0f1" points="638.595,-470.0472 637.1468,-459.5518 631.7339,-468.6595 638.595,-470.0472"/>
</g>
<!-- CSE110 -->
<g id="node13" class="node">
<title>CSE110</title>
<polygon fill="#bdc3c7" stroke="#000000" points="1691.5,-645 1510.5,-645 1510.5,-592 1691.5,-592 1691.5,-645"/>
<text text-anchor="middle" x="1601" y="-629.8" font-family="Sans-Serif" font-size="14.00" fill="#000000">CSE110</text>
<text text-anchor="middle" x="1601" y="-614.8" font-family="Sans-Serif" font-size="14.00" fill="#000000">Principles of Programming</text>
<text text-anchor="middle" x="1601" y="-599.8" font-family="Sans-Serif" font-size="14.00" fill="#000000">AP</text>
</g>
<!-- CSE205 -->
<g id="node14" class="node">
<title>CSE205</title>
<polygon fill="#c0392b" stroke="#000000" points="1695,-556 1475,-556 1475,-503 1695,-503 1695,-556"/>
<text text-anchor="middle" x="1585" y="-540.8" font-family="Sans-Serif" font-size="14.00" fill="#000000">CSE205</text>
<text text-anchor="middle" x="1585" y="-525.8" font-family="Sans-Serif" font-size="14.00" fill="#000000">Object&#45;Oriented Program &amp; Data</text>
<text text-anchor="middle" x="1585" y="-510.8" font-family="Sans-Serif" font-size="14.00" fill="#000000">A+</text>
</g>
<!-- CSE110&#45;&gt;CSE205 -->
<g id="edge11" class="edge">
<title>CSE110&#45;&gt;CSE205</title>
<path fill="none" stroke="#ecf0f1" d="M1596.1995,-591.7971C1594.744,-583.7007 1593.1193,-574.6633 1591.5687,-566.0384"/>
<polygon fill="#ecf0f1" stroke="#ecf0f1" points="1595.0114,-565.407 1589.7971,-556.1841 1588.1218,-566.6456 1595.0114,-565.407"/>
</g>
<!-- CSE230 -->
<g id="node22" class="node">
<title>CSE230</title>
<polygon fill="#f39c12" stroke="#000000" points="2149,-378 1921,-378 1921,-325 2149,-325 2149,-378"/>
<text text-anchor="middle" x="2035" y="-362.8" font-family="Sans-Serif" font-size="14.00" fill="#000000">CSE230</text>
<text text-anchor="middle" x="2035" y="-347.8" font-family="Sans-Serif" font-size="14.00" fill="#000000">Computer Org/Assemb Lang Prog</text>
<text text-anchor="middle" x="2035" y="-332.8" font-family="Sans-Serif" font-size="14.00" fill="#000000">A+</text>
</g>
<!-- CSE110&#45;&gt;CSE230 -->
<g id="edge18" class="edge">
<title>CSE110&#45;&gt;CSE230</title>
<path fill="none" stroke="#ecf0f1" d="M1691.6836,-610.3596C1770.0592,-601.5017 1875.4192,-584.6286 1906,-556 1953.7787,-511.2714 1907.1898,-467.4214 1945,-414 1953.0475,-402.6298 1963.855,-392.6506 1975.185,-384.1969"/>
<polygon fill="#ecf0f1" stroke="#ecf0f1" points="1977.3565,-386.9479 1983.4953,-378.3128 1973.3114,-381.2349 1977.3565,-386.9479"/>
</g>
<!-- CSE240 -->
<g id="node18" class="node">
<title>CSE240</title>
<polygon fill="#d35400" stroke="#000000" points="1702.5,-467 1481.5,-467 1481.5,-414 1702.5,-414 1702.5,-467"/>
<text text-anchor="middle" x="1592" y="-451.8" font-family="Sans-Serif" font-size="14.00" fill="#000000">CSE240</text>
<text text-anchor="middle" x="1592" y="-436.8" font-family="Sans-Serif" font-size="14.00" fill="#000000">Intro to Programming Languages</text>
<text text-anchor="middle" x="1592" y="-421.8" font-family="Sans-Serif" font-size="14.00" fill="#000000">A+</text>
</g>
<!-- CSE205&#45;&gt;CSE240 -->
<g id="edge13" class="edge">
<title>CSE205&#45;&gt;CSE240</title>
<path fill="none" stroke="#ecf0f1" d="M1587.1002,-502.7971C1587.7301,-494.7887 1588.4324,-485.8597 1589.1041,-477.3198"/>
<polygon fill="#ecf0f1" stroke="#ecf0f1" points="1592.6063,-477.4278 1589.9013,-467.1841 1585.6278,-476.8788 1592.6063,-477.4278"/>
</g>
<!-- CSE301 -->
<g id="node40" class="node">
<title>CSE301</title>
<polygon fill="#2980b9" stroke="#000000" points="1854,-459.5 1728,-459.5 1728,-421.5 1854,-421.5 1854,-459.5"/>
<text text-anchor="middle" x="1791" y="-444.3" font-family="Sans-Serif" font-size="14.00" fill="#000000">CSE301</text>
<text text-anchor="middle" x="1791" y="-429.3" font-family="Sans-Serif" font-size="14.00" fill="#000000">Computing Ethics</text>
</g>
<!-- CSE205&#45;&gt;CSE301 -->
<g id="edge45" class="edge">
<title>CSE205&#45;&gt;CSE301</title>
<path fill="none" stroke="#ecf0f1" d="M1646.5278,-502.9176C1675.5002,-490.4004 1709.7281,-475.6126 1737.5944,-463.5733"/>
<polygon fill="#ecf0f1" stroke="#ecf0f1" points="1738.9924,-466.7821 1746.7841,-459.603 1736.2161,-460.3561 1738.9924,-466.7821"/>
</g>
<!-- MAT447 -->
<g id="node42" class="node">
<title>MAT447</title>
<polygon fill="#8e44ad" stroke="#000000" points="1378,-459.5 1270,-459.5 1270,-421.5 1378,-421.5 1378,-459.5"/>
<text text-anchor="middle" x="1324" y="-444.3" font-family="Sans-Serif" font-size="14.00" fill="#000000">MAT447</text>
<text text-anchor="middle" x="1324" y="-429.3" font-family="Sans-Serif" font-size="14.00" fill="#000000">Cryptography I</text>
</g>
<!-- CSE205&#45;&gt;MAT447 -->
<g id="edge50" class="edge">
<title>CSE205&#45;&gt;MAT447</title>
<path fill="none" stroke="#ecf0f1" d="M1507.0449,-502.9176C1469.1496,-489.9955 1424.1577,-474.6534 1388.2633,-462.4135"/>
<polygon fill="#ecf0f1" stroke="#ecf0f1" points="1388.9885,-458.963 1378.394,-459.0481 1386.7292,-465.5884 1388.9885,-458.963"/>
</g>
<!-- FSE100 -->
<g id="node15" class="node">
<title>FSE100</title>
<polygon fill="#c0392b" stroke="#000000" points="1897,-556 1713,-556 1713,-503 1897,-503 1897,-556"/>
<text text-anchor="middle" x="1805" y="-540.8" font-family="Sans-Serif" font-size="14.00" fill="#000000">FSE100</text>
<text text-anchor="middle" x="1805" y="-525.8" font-family="Sans-Serif" font-size="14.00" fill="#000000">Introduction to Engineering</text>
<text text-anchor="middle" x="1805" y="-510.8" font-family="Sans-Serif" font-size="14.00" fill="#000000">A</text>
</g>
<!-- FSE100&#45;&gt;CSE301 -->
<g id="edge44" class="edge">
<title>FSE100&#45;&gt;CSE301</title>
<path fill="none" stroke="#ecf0f1" d="M1800.7995,-502.7971C1799.1565,-492.3518 1797.267,-480.3403 1795.5884,-469.6689"/>
<polygon fill="#ecf0f1" stroke="#ecf0f1" points="1799.0084,-468.8864 1793.9969,-459.5518 1792.0934,-469.9742 1799.0084,-468.8864"/>
</g>
<!-- CSE120 -->
<g id="node17" class="node">
<title>CSE120</title>
<polygon fill="#d35400" stroke="#000000" points="2148.5,-467 1953.5,-467 1953.5,-414 2148.5,-414 2148.5,-467"/>
<text text-anchor="middle" x="2051" y="-451.8" font-family="Sans-Serif" font-size="14.00" fill="#000000">CSE120</text>
<text text-anchor="middle" x="2051" y="-436.8" font-family="Sans-Serif" font-size="14.00" fill="#000000">Digital Design Fundamentals</text>
<text text-anchor="middle" x="2051" y="-421.8" font-family="Sans-Serif" font-size="14.00" fill="#000000">A+</text>
</g>
<!-- CSE120&#45;&gt;CSE230 -->
<g id="edge19" class="edge">
<title>CSE120&#45;&gt;CSE230</title>
<path fill="none" stroke="#ecf0f1" d="M2046.1995,-413.7971C2044.744,-405.7007 2043.1193,-396.6633 2041.5687,-388.0384"/>
<polygon fill="#ecf0f1" stroke="#ecf0f1" points="2045.0114,-387.407 2039.7971,-378.1841 2038.1218,-388.6456 2045.0114,-387.407"/>
</g>
<!-- CSE310 -->
<g id="node23" class="node">
<title>CSE310</title>
<polygon fill="#f39c12" stroke="#000000" points="1511.5,-378 1300.5,-378 1300.5,-325 1511.5,-325 1511.5,-378"/>
<text text-anchor="middle" x="1406" y="-362.8" font-family="Sans-Serif" font-size="14.00" fill="#000000">CSE310</text>
<text text-anchor="middle" x="1406" y="-347.8" font-family="Sans-Serif" font-size="14.00" fill="#000000">Data Structures and Algorithms</text>
<text text-anchor="middle" x="1406" y="-332.8" font-family="Sans-Serif" font-size="14.00" fill="#000000">A+</text>
</g>
<!-- CSE240&#45;&gt;CSE310 -->
<g id="edge20" class="edge">
<title>CSE240&#45;&gt;CSE310</title>
<path fill="none" stroke="#ecf0f1" d="M1536.4458,-413.9176C1515.7457,-404.0127 1492.0742,-392.686 1470.6286,-382.4244"/>
<polygon fill="#ecf0f1" stroke="#ecf0f1" points="1472.1204,-379.2582 1461.5891,-378.0991 1469.0989,-385.5726 1472.1204,-379.2582"/>
</g>
<!-- CSE365 -->
<g id="node26" class="node">
<title>CSE365</title>
<polygon fill="#16a085" stroke="#000000" points="1686.5,-378 1529.5,-378 1529.5,-325 1686.5,-325 1686.5,-378"/>
<text text-anchor="middle" x="1608" y="-362.8" font-family="Sans-Serif" font-size="14.00" fill="#000000">CSE365</text>
<text text-anchor="middle" x="1608" y="-347.8" font-family="Sans-Serif" font-size="14.00" fill="#000000">Information Assurance</text>
<text text-anchor="middle" x="1608" y="-332.8" font-family="Sans-Serif" font-size="14.00" fill="#000000">A+</text>
</g>
<!-- CSE240&#45;&gt;CSE365 -->
<g id="edge25" class="edge">
<title>CSE240&#45;&gt;CSE365</title>
<path fill="none" stroke="#ecf0f1" d="M1596.8005,-413.7971C1598.256,-405.7007 1599.8807,-396.6633 1601.4313,-388.0384"/>
<polygon fill="#ecf0f1" stroke="#ecf0f1" points="1604.8782,-388.6456 1603.2029,-378.1841 1597.9886,-387.407 1604.8782,-388.6456"/>
</g>
<!-- CSE360 -->
<g id="node32" class="node">
<title>CSE360</title>
<polygon fill="#27ae60" stroke="#000000" points="1903,-370.5 1705,-370.5 1705,-332.5 1903,-332.5 1903,-370.5"/>
<text text-anchor="middle" x="1804" y="-355.3" font-family="Sans-Serif" font-size="14.00" fill="#000000">CSE360</text>
<text text-anchor="middle" x="1804" y="-340.3" font-family="Sans-Serif" font-size="14.00" fill="#000000">Intro to Software Engineering</text>
</g>
<!-- CSE240&#45;&gt;CSE360 -->
<g id="edge34" class="edge">
<title>CSE240&#45;&gt;CSE360</title>
<path fill="none" stroke="#ecf0f1" d="M1655.3198,-413.9176C1685.1361,-401.4004 1720.3609,-386.6126 1749.0389,-374.5733"/>
<polygon fill="#ecf0f1" stroke="#ecf0f1" points="1750.6306,-377.701 1758.4963,-370.603 1747.921,-371.2467 1750.6306,-377.701"/>
</g>
<!-- MAT243&#45;&gt;CSE310 -->
<g id="edge21" class="edge">
<title>MAT243&#45;&gt;CSE310</title>
<path fill="none" stroke="#ecf0f1" d="M1390.6922,-591.9229C1393.7392,-544.0667 1400.1545,-443.3082 1403.6345,-388.6529"/>
<polygon fill="#ecf0f1" stroke="#ecf0f1" points="1407.1469,-388.5681 1404.2894,-378.3659 1400.161,-388.1233 1407.1469,-388.5681"/>
</g>
<!-- PHY122 -->
<g id="node21" class="node">
<title>PHY122</title>
<polygon fill="#d35400" stroke="#000000" points="328,-467 196,-467 196,-414 328,-414 328,-467"/>
<text text-anchor="middle" x="262" y="-451.8" font-family="Sans-Serif" font-size="14.00" fill="#000000">PHY122</text>
<text text-anchor="middle" x="262" y="-436.8" font-family="Sans-Serif" font-size="14.00" fill="#000000">Univ Physics Lab I</text>
<text text-anchor="middle" x="262" y="-421.8" font-family="Sans-Serif" font-size="14.00" fill="#000000">A&#45;</text>
</g>
<!-- PHY121&#45;&gt;PHY122 -->
<g id="edge17" class="edge">
<title>PHY121&#45;&gt;PHY122</title>
<path fill="none" stroke="#ecf0f1" d="M372.6492,-502.7971C353.821,-493.0727 332.9476,-481.9907 314.4295,-471.8964"/>
<polygon fill="#ecf0f1" stroke="#ecf0f1" points="315.9991,-468.7655 305.5472,-467.0306 312.6359,-474.9047 315.9991,-468.7655"/>
</g>
<!-- PHY121&#45;&gt;PHY131 -->
<g id="edge27" class="edge">
<title>PHY121&#45;&gt;PHY131</title>
<path fill="none" stroke="#ecf0f1" d="M439.5012,-502.7971C442.7197,-494.6127 446.3164,-485.4668 449.7415,-476.7573"/>
<polygon fill="#ecf0f1" stroke="#ecf0f1" points="453.1036,-477.7713 453.5063,-467.1841 446.5892,-475.2094 453.1036,-477.7713"/>
</g>
<!-- PHY122&#45;&gt;PHY121 -->
<g id="edge16" class="edge">
<title>PHY122&#45;&gt;PHY121</title>
<path fill="none" stroke="#ecf0f1" d="M318.0171,-467.0306C336.821,-476.7389 357.6961,-487.8186 376.2419,-497.9245"/>
<polygon fill="#ecf0f1" stroke="#ecf0f1" points="374.6877,-501.0638 385.1398,-502.7971 378.0499,-494.9241 374.6877,-501.0638"/>
</g>
<!-- CSE340 -->
<g id="node25" class="node">
<title>CSE340</title>
<polygon fill="#16a085" stroke="#000000" points="2106,-289 1890,-289 1890,-236 2106,-236 2106,-289"/>
<text text-anchor="middle" x="1998" y="-273.8" font-family="Sans-Serif" font-size="14.00" fill="#000000">CSE340</text>
<text text-anchor="middle" x="1998" y="-258.8" font-family="Sans-Serif" font-size="14.00" fill="#000000">Principles of Programming Lang</text>
<text text-anchor="middle" x="1998" y="-243.8" font-family="Sans-Serif" font-size="14.00" fill="#000000">A</text>
</g>
<!-- CSE230&#45;&gt;CSE340 -->
<g id="edge24" class="edge">
<title>CSE230&#45;&gt;CSE340</title>
<path fill="none" stroke="#ecf0f1" d="M2023.8988,-324.7971C2020.4597,-316.5247 2016.6122,-307.27 2012.9565,-298.4765"/>
<polygon fill="#ecf0f1" stroke="#ecf0f1" points="2016.1641,-297.0743 2009.0934,-289.1841 2009.7004,-299.7615 2016.1641,-297.0743"/>
</g>
<!-- CSE330 -->
<g id="node39" class="node">
<title>CSE330</title>
<polygon fill="#2980b9" stroke="#000000" points="1872,-281.5 1736,-281.5 1736,-243.5 1872,-243.5 1872,-281.5"/>
<text text-anchor="middle" x="1804" y="-266.3" font-family="Sans-Serif" font-size="14.00" fill="#000000">CSE330</text>
<text text-anchor="middle" x="1804" y="-251.3" font-family="Sans-Serif" font-size="14.00" fill="#000000">Operating Systems</text>
</g>
<!-- CSE230&#45;&gt;CSE330 -->
<g id="edge42" class="edge">
<title>CSE230&#45;&gt;CSE330</title>
<path fill="none" stroke="#ecf0f1" d="M1966.0053,-324.9176C1933.2343,-312.2916 1894.4671,-297.3553 1863.0733,-285.2598"/>
<polygon fill="#ecf0f1" stroke="#ecf0f1" points="1864.1716,-281.9323 1853.5819,-281.603 1861.6549,-288.4642 1864.1716,-281.9323"/>
</g>
<!-- CSE310&#45;&gt;CSE340 -->
<g id="edge23" class="edge">
<title>CSE310&#45;&gt;CSE340</title>
<path fill="none" stroke="#ecf0f1" d="M1511.7992,-326.5889C1514.8955,-326.0304 1517.9675,-325.499 1521,-325 1676.4108,-299.4293 1720.4898,-314.1739 1879.5808,-289.1416"/>
<polygon fill="#ecf0f1" stroke="#ecf0f1" points="1880.4064,-292.5541 1889.7269,-287.5163 1879.2991,-285.6422 1880.4064,-292.5541"/>
</g>
<!-- CSE355 -->
<g id="node34" class="node">
<title>CSE355</title>
<polygon fill="#27ae60" stroke="#000000" points="1284,-281.5 1078,-281.5 1078,-243.5 1284,-243.5 1284,-281.5"/>
<text text-anchor="middle" x="1181" y="-266.3" font-family="Sans-Serif" font-size="14.00" fill="#000000">CSE355</text>
<text text-anchor="middle" x="1181" y="-251.3" font-family="Sans-Serif" font-size="14.00" fill="#000000">Intro Theoretical Computer Sci</text>
</g>
<!-- CSE310&#45;&gt;CSE355 -->
<g id="edge36" class="edge">
<title>CSE310&#45;&gt;CSE355</title>
<path fill="none" stroke="#ecf0f1" d="M1338.7974,-324.9176C1307.0152,-312.346 1269.4427,-297.484 1238.9347,-285.4164"/>
<polygon fill="#ecf0f1" stroke="#ecf0f1" points="1239.8804,-282.0267 1229.294,-281.603 1237.3056,-288.5359 1239.8804,-282.0267"/>
</g>
<!-- CSE450 -->
<g id="node37" class="node">
<title>CSE450</title>
<polygon fill="#2980b9" stroke="#000000" points="1509.5,-281.5 1302.5,-281.5 1302.5,-243.5 1509.5,-243.5 1509.5,-281.5"/>
<text text-anchor="middle" x="1406" y="-266.3" font-family="Sans-Serif" font-size="14.00" fill="#000000">CSE450</text>
<text text-anchor="middle" x="1406" y="-251.3" font-family="Sans-Serif" font-size="14.00" fill="#000000">Design&amp;Analysis of Algorithms</text>
</g>
<!-- CSE310&#45;&gt;CSE450 -->
<g id="edge40" class="edge">
<title>CSE310&#45;&gt;CSE450</title>
<path fill="none" stroke="#ecf0f1" d="M1406,-324.7971C1406,-314.3518 1406,-302.3403 1406,-291.6689"/>
<polygon fill="#ecf0f1" stroke="#ecf0f1" points="1409.5001,-291.5517 1406,-281.5518 1402.5001,-291.5518 1409.5001,-291.5517"/>
</g>
<!-- CSE412 -->
<g id="node38" class="node">
<title>CSE412</title>
<polygon fill="#2980b9" stroke="#000000" points="870,-281.5 708,-281.5 708,-243.5 870,-243.5 870,-281.5"/>
<text text-anchor="middle" x="789" y="-266.3" font-family="Sans-Serif" font-size="14.00" fill="#000000">CSE412</text>
<text text-anchor="middle" x="789" y="-251.3" font-family="Sans-Serif" font-size="14.00" fill="#000000">Database Management</text>
</g>
<!-- CSE310&#45;&gt;CSE412 -->
<g id="edge41" class="edge">
<title>CSE310&#45;&gt;CSE412</title>
<path fill="none" stroke="#ecf0f1" d="M1300.209,-326.5384C1297.1102,-325.9947 1294.0356,-325.48 1291,-325 1109.4467,-296.2932 1059.6127,-323.128 879,-289 871.9578,-287.6693 864.6776,-286.0132 857.4494,-284.1829"/>
<polygon fill="#ecf0f1" stroke="#ecf0f1" points="858.2145,-280.765 847.6521,-281.5932 856.4256,-287.5326 858.2145,-280.765"/>
</g>
<!-- CSE310&#45;&gt;CSE330 -->
<g id="edge43" class="edge">
<title>CSE310&#45;&gt;CSE330</title>
<path fill="none" stroke="#ecf0f1" d="M1511.5451,-326.9481C1514.7302,-326.2811 1517.8874,-325.6301 1521,-325 1612.0951,-306.5582 1636.9979,-312.1957 1727,-289 1732.0055,-287.71 1737.1519,-286.2479 1742.2967,-284.6892"/>
<polygon fill="#ecf0f1" stroke="#ecf0f1" points="1743.6606,-287.9294 1752.1515,-281.5925 1741.5621,-281.2514 1743.6606,-287.9294"/>
</g>
<!-- CSE466 -->
<g id="node43" class="node">
<title>CSE466</title>
<polygon fill="#8e44ad" stroke="#000000" points="1718,-281.5 1528,-281.5 1528,-243.5 1718,-243.5 1718,-281.5"/>
<text text-anchor="middle" x="1623" y="-266.3" font-family="Sans-Serif" font-size="14.00" fill="#000000">CSE466</text>
<text text-anchor="middle" x="1623" y="-251.3" font-family="Sans-Serif" font-size="14.00" fill="#000000">Computer Systems Security</text>
</g>
<!-- CSE310&#45;&gt;CSE466 -->
<g id="edge53" class="edge">
<title>CSE310&#45;&gt;CSE466</title>
<path fill="none" stroke="#ecf0f1" d="M1470.8132,-324.9176C1501.4654,-312.346 1537.702,-297.484 1567.1252,-285.4164"/>
<polygon fill="#ecf0f1" stroke="#ecf0f1" points="1568.4991,-288.6359 1576.4231,-281.603 1565.8429,-282.1594 1568.4991,-288.6359"/>
</g>
<!-- CSE471 -->
<g id="node45" class="node">
<title>CSE471</title>
<polygon fill="#7f8c8d" stroke="#000000" points="1060,-281.5 888,-281.5 888,-243.5 1060,-243.5 1060,-281.5"/>
<text text-anchor="middle" x="974" y="-266.3" font-family="Sans-Serif" font-size="14.00" fill="#000000">CSE471</text>
<text text-anchor="middle" x="974" y="-251.3" font-family="Sans-Serif" font-size="14.00" fill="#000000">Intro Artificial Intelligence</text>
</g>
<!-- CSE310&#45;&gt;CSE471 -->
<g id="edge56" class="edge">
<title>CSE310&#45;&gt;CSE471</title>
<path fill="none" stroke="#ecf0f1" d="M1300.465,-326.8976C1297.277,-326.2453 1294.1164,-325.6111 1291,-325 1192.9122,-305.7671 1166.6243,-310.4617 1069,-289 1062.3146,-287.5303 1055.4005,-285.8734 1048.4922,-284.1235"/>
<polygon fill="#ecf0f1" stroke="#ecf0f1" points="1048.9609,-280.6293 1038.4022,-281.5044 1047.202,-287.4047 1048.9609,-280.6293"/>
</g>
<!-- MAT416 -->
<g id="node36" class="node">
<title>MAT416</title>
<polygon fill="#2980b9" stroke="#000000" points="1251.5,-459.5 1148.5,-459.5 1148.5,-421.5 1251.5,-421.5 1251.5,-459.5"/>
<text text-anchor="middle" x="1200" y="-444.3" font-family="Sans-Serif" font-size="14.00" fill="#000000">MAT416</text>
<text text-anchor="middle" x="1200" y="-429.3" font-family="Sans-Serif" font-size="14.00" fill="#000000">Graph Theory</text>
</g>
<!-- MAT343&#45;&gt;MAT416 -->
<g id="edge39" class="edge">
<title>MAT343&#45;&gt;MAT416</title>
<path fill="none" stroke="#ecf0f1" d="M1085.9054,-502.7971C1108.2238,-490.611 1134.4466,-476.293 1156.1213,-464.4583"/>
<polygon fill="#ecf0f1" stroke="#ecf0f1" points="1158.0078,-467.416 1165.1074,-459.5518 1154.6532,-461.2722 1158.0078,-467.416"/>
</g>
<!-- MAT343&#45;&gt;MAT447 -->
<g id="edge52" class="edge">
<title>MAT343&#45;&gt;MAT447</title>
<path fill="none" stroke="#ecf0f1" d="M1116.0644,-505.8298C1119.419,-504.8662 1122.7416,-503.9193 1126,-503 1185.7635,-486.1379 1202.2415,-487.0859 1261,-467 1264.4596,-465.8174 1267.999,-464.5356 1271.549,-463.1955"/>
<polygon fill="#ecf0f1" stroke="#ecf0f1" points="1272.8775,-466.4342 1280.923,-459.5406 1270.3346,-459.9124 1272.8775,-466.4342"/>
</g>
<!-- CSE477 -->
<g id="node44" class="node">
<title>CSE477</title>
<polygon fill="#8e44ad" stroke="#000000" points="967.5,-459.5 738.5,-459.5 738.5,-421.5 967.5,-421.5 967.5,-459.5"/>
<text text-anchor="middle" x="853" y="-444.3" font-family="Sans-Serif" font-size="14.00" fill="#000000">CSE477</text>
<text text-anchor="middle" x="853" y="-429.3" font-family="Sans-Serif" font-size="14.00" fill="#000000">Intro Computer&#45;Aided Geom Desg</text>
</g>
<!-- MAT343&#45;&gt;CSE477 -->
<g id="edge55" class="edge">
<title>MAT343&#45;&gt;CSE477</title>
<path fill="none" stroke="#ecf0f1" d="M981.7939,-502.7971C956.2628,-490.4477 926.2053,-475.9091 901.5515,-463.9841"/>
<polygon fill="#ecf0f1" stroke="#ecf0f1" points="902.9142,-460.7554 892.3879,-459.5518 899.8661,-467.0569 902.9142,-460.7554"/>
</g>
<!-- STP425 -->
<g id="node48" class="node">
<title>STP425</title>
<polygon fill="#7f8c8d" stroke="#000000" points="785,-370.5 635,-370.5 635,-332.5 785,-332.5 785,-370.5"/>
<text text-anchor="middle" x="710" y="-355.3" font-family="Sans-Serif" font-size="14.00" fill="#000000">STP425</text>
<text text-anchor="middle" x="710" y="-340.3" font-family="Sans-Serif" font-size="14.00" fill="#000000">Stochastic Processes</text>
</g>
<!-- MAT343&#45;&gt;STP425 -->
<g id="edge59" class="edge">
<title>MAT343&#45;&gt;STP425</title>
<path fill="none" stroke="#ecf0f1" d="M957.9758,-505.1759C954.9529,-504.4131 951.9533,-503.6844 949,-503 900.9534,-491.8661 765.0229,-501.7253 730,-467 707.6457,-444.8357 705.0042,-407.286 706.4145,-381.0366"/>
<polygon fill="#ecf0f1" stroke="#ecf0f1" points="709.9169,-381.1374 707.1873,-370.9002 702.9372,-380.6052 709.9169,-381.1374"/>
</g>
<!-- CSE485 -->
<g id="node41" class="node">
<title>CSE485</title>
<polygon fill="#8e44ad" stroke="#000000" points="2002,-200 1800,-200 1800,-162 2002,-162 2002,-200"/>
<text text-anchor="middle" x="1901" y="-184.8" font-family="Sans-Serif" font-size="14.00" fill="#000000">CSE485</text>
<text text-anchor="middle" x="1901" y="-169.8" font-family="Sans-Serif" font-size="14.00" fill="#000000">Computer Sci Capstone Proj I</text>
</g>
<!-- CSE340&#45;&gt;CSE485 -->
<g id="edge47" class="edge">
<title>CSE340&#45;&gt;CSE485</title>
<path fill="none" stroke="#ecf0f1" d="M1966.2386,-235.8139C1955.1233,-226.4747 1942.6711,-216.0123 1931.6486,-206.7511"/>
<polygon fill="#ecf0f1" stroke="#ecf0f1" points="1933.8225,-204.0062 1923.9147,-200.2531 1929.3195,-209.3656 1933.8225,-204.0062"/>
</g>
<!-- CSE365&#45;&gt;CSE466 -->
<g id="edge54" class="edge">
<title>CSE365&#45;&gt;CSE466</title>
<path fill="none" stroke="#ecf0f1" d="M1612.5005,-324.7971C1614.2609,-314.3518 1616.2853,-302.3403 1618.0839,-291.6689"/>
<polygon fill="#ecf0f1" stroke="#ecf0f1" points="1621.5783,-291.9944 1619.789,-281.5518 1614.6757,-290.831 1621.5783,-291.9944"/>
</g>
<!-- MAT300&#45;&gt;MAT371 -->
<g id="edge33" class="edge">
<title>MAT300&#45;&gt;MAT371</title>
<path fill="none" stroke="#ecf0f1" d="M1169.9947,-502.7971C1148.0871,-490.611 1122.3469,-476.293 1101.0711,-464.4583"/>
<polygon fill="#ecf0f1" stroke="#ecf0f1" points="1102.6908,-461.3542 1092.2504,-459.5518 1099.288,-467.4715 1102.6908,-461.3542"/>
</g>
<!-- MAT300&#45;&gt;MAT416 -->
<g id="edge38" class="edge">
<title>MAT300&#45;&gt;MAT416</title>
<path fill="none" stroke="#ecf0f1" d="M1212.5994,-502.7971C1210.4869,-492.3518 1208.0576,-480.3403 1205.8993,-469.6689"/>
<polygon fill="#ecf0f1" stroke="#ecf0f1" points="1209.2661,-468.6595 1203.8532,-459.5518 1202.405,-470.0472 1209.2661,-468.6595"/>
</g>
<!-- MAT300&#45;&gt;MAT447 -->
<g id="edge51" class="edge">
<title>MAT300&#45;&gt;MAT447</title>
<path fill="none" stroke="#ecf0f1" d="M1249.8035,-502.7971C1263.6694,-491.155 1279.8526,-477.5671 1293.5605,-466.0577"/>
<polygon fill="#ecf0f1" stroke="#ecf0f1" points="1295.9012,-468.6625 1301.3091,-459.5518 1291.4,-463.3016 1295.9012,-468.6625"/>
</g>
<!-- PHY132 -->
<g id="node29" class="node">
<title>PHY132</title>
<polygon fill="#16a085" stroke="#000000" points="548.5,-378 379.5,-378 379.5,-325 548.5,-325 548.5,-378"/>
<text text-anchor="middle" x="464" y="-362.8" font-family="Sans-Serif" font-size="14.00" fill="#000000">PHY132</text>
<text text-anchor="middle" x="464" y="-347.8" font-family="Sans-Serif" font-size="14.00" fill="#000000">University Physics Lab II</text>
<text text-anchor="middle" x="464" y="-332.8" font-family="Sans-Serif" font-size="14.00" fill="#000000">A&#45;</text>
</g>
<!-- PHY131&#45;&gt;PHY132 -->
<g id="edge30" class="edge">
<title>PHY131&#45;&gt;PHY132</title>
<path fill="none" stroke="#ecf0f1" d="M457.7547,-413.7971C457.276,-405.7887 457.1378,-396.8597 457.3402,-388.3198"/>
<polygon fill="#ecf0f1" stroke="#ecf0f1" points="460.843,-388.3191 457.7558,-378.1841 453.8489,-388.0322 460.843,-388.3191"/>
</g>
<!-- PHY132&#45;&gt;PHY131 -->
<g id="edge29" class="edge">
<title>PHY132&#45;&gt;PHY131</title>
<path fill="none" stroke="#ecf0f1" d="M470.2442,-378.1841C470.7234,-386.191 470.8621,-395.1196 470.6603,-403.6601"/>
<polygon fill="#ecf0f1" stroke="#ecf0f1" points="467.1574,-403.6622 470.2453,-413.7971 474.1515,-403.9486 467.1574,-403.6622"/>
</g>
<!-- MAT371&#45;&gt;STP425 -->
<g id="edge60" class="edge">
<title>MAT371&#45;&gt;STP425</title>
<path fill="none" stroke="#ecf0f1" d="M1001.9808,-421.4793C993.6416,-418.8498 985.1212,-416.2744 977,-414 916.7053,-397.1139 847.8896,-381.0817 795.2234,-369.4831"/>
<polygon fill="#ecf0f1" stroke="#ecf0f1" points="795.7659,-366.019 785.2484,-367.2967 794.2671,-372.8566 795.7659,-366.019"/>
</g>
<!-- CSE360&#45;&gt;CSE485 -->
<g id="edge49" class="edge">
<title>CSE360&#45;&gt;CSE485</title>
<path fill="none" stroke="#ecf0f1" d="M1878.8031,-332.477C1889.9062,-329.8478 1901.2328,-327.2732 1912,-325 1956.8269,-315.5361 2085.5679,-324.1108 2115,-289 2130.1324,-270.948 2129.4352,-254.6143 2115,-236 2101.5037,-218.5964 2057.0614,-205.74 2012.149,-196.8529"/>
<polygon fill="#ecf0f1" stroke="#ecf0f1" points="2012.7469,-193.4039 2002.267,-194.9605 2011.4303,-200.2789 2012.7469,-193.4039"/>
</g>
<!-- CSE355&#45;&gt;CSE485 -->
<g id="edge48" class="edge">
<title>CSE355&#45;&gt;CSE485</title>
<path fill="none" stroke="#ecf0f1" d="M1255.4694,-243.481C1268.2608,-240.6612 1281.4682,-238.027 1294,-236 1465.8308,-208.2071 1667.4673,-193.4226 1789.654,-186.4045"/>
<polygon fill="#ecf0f1" stroke="#ecf0f1" points="1789.9823,-189.8915 1799.7681,-185.8309 1789.5859,-182.9028 1789.9823,-189.8915"/>
</g>
<!-- STP421&#45;&gt;STP425 -->
<g id="edge61" class="edge">
<title>STP421&#45;&gt;STP425</title>
<path fill="none" stroke="#ecf0f1" d="M655.972,-421.1883C665.5564,-408.8258 678.1389,-392.5962 688.7497,-378.9098"/>
<polygon fill="#ecf0f1" stroke="#ecf0f1" points="691.6962,-380.8216 695.0572,-370.774 686.164,-376.5326 691.6962,-380.8216"/>
</g>
<!-- CSE330&#45;&gt;CSE485 -->
<g id="edge46" class="edge">
<title>CSE330&#45;&gt;CSE485</title>
<path fill="none" stroke="#ecf0f1" d="M1826.9876,-243.1856C1839.9134,-232.3253 1856.2189,-218.6254 1870.2334,-206.8503"/>
<polygon fill="#ecf0f1" stroke="#ecf0f1" points="1872.7726,-209.2883 1878.1774,-200.1757 1868.2696,-203.9289 1872.7726,-209.2883"/>
</g>
<!-- CSE486 -->
<g id="node46" class="node">
<title>CSE486</title>
<polygon fill="#7f8c8d" stroke="#000000" points="2004,-126 1798,-126 1798,-88 2004,-88 2004,-126"/>
<text text-anchor="middle" x="1901" y="-110.8" font-family="Sans-Serif" font-size="14.00" fill="#000000">CSE486</text>
<text text-anchor="middle" x="1901" y="-95.8" font-family="Sans-Serif" font-size="14.00" fill="#000000">Computer Sci Capstone Proj II</text>
</g>
<!-- CSE485&#45;&gt;CSE486 -->
<g id="edge57" class="edge">
<title>CSE485&#45;&gt;CSE486</title>
<path fill="none" stroke="#ecf0f1" d="M1901,-161.9432C1901,-154.1493 1901,-144.9538 1901,-136.3381"/>
<polygon fill="#ecf0f1" stroke="#ecf0f1" points="1904.5001,-136.2494 1901,-126.2495 1897.5001,-136.2495 1904.5001,-136.2494"/>
</g>
<!-- MAT448 -->
<g id="node47" class="node">
<title>MAT448</title>
<polygon fill="#7f8c8d" stroke="#000000" points="1282,-370.5 1170,-370.5 1170,-332.5 1282,-332.5 1282,-370.5"/>
<text text-anchor="middle" x="1226" y="-355.3" font-family="Sans-Serif" font-size="14.00" fill="#000000">MAT448</text>
<text text-anchor="middle" x="1226" y="-340.3" font-family="Sans-Serif" font-size="14.00" fill="#000000">Cryptography II</text>
</g>
<!-- MAT447&#45;&gt;MAT448 -->
<g id="edge58" class="edge">
<title>MAT447&#45;&gt;MAT448</title>
<path fill="none" stroke="#ecf0f1" d="M1302.7355,-421.1883C1288.7376,-408.476 1270.237,-391.6744 1254.9089,-377.754"/>
<polygon fill="#ecf0f1" stroke="#ecf0f1" points="1256.9789,-374.906 1247.223,-370.774 1252.2728,-380.088 1256.9789,-374.906"/>
</g>
</g>
</svg>
